%TF.GenerationSoftware,Altium Limited,Altium Designer,18.1.7 (191)*%
G04 Layer_Physical_Order=1*
G04 Layer_Color=255*
%FSLAX26Y26*%
%MOIN*%
%TF.FileFunction,Copper,L1,Top,Signal*%
%TF.Part,Single*%
G01*
G75*
%TA.AperFunction,Conductor*%
%ADD10C,0.039370*%
%TA.AperFunction,ComponentPad*%
%ADD11C,0.078740*%
%ADD12R,0.082680X0.082680*%
%ADD13C,0.091000*%
%ADD14R,0.069000X0.069000*%
%ADD15C,0.074800*%
%ADD16R,0.078740X0.078740*%
%ADD17C,0.059055*%
%ADD18R,0.059055X0.059055*%
%ADD19C,0.084650*%
%ADD20R,0.084650X0.084650*%
%ADD21R,0.078740X0.078740*%
%TA.AperFunction,ViaPad*%
%ADD22C,0.090550*%
G36*
X3544609Y20391D02*
X20391D01*
Y2960000D01*
X3544609D01*
Y20391D01*
D02*
G37*
%LPC*%
G36*
X2415000Y2867591D02*
X2402204Y2866331D01*
X2389899Y2862598D01*
X2378560Y2856537D01*
X2368620Y2848380D01*
X2363407Y2842027D01*
X2023776D01*
X2018563Y2848380D01*
X2008623Y2856537D01*
X1997284Y2862598D01*
X1984979Y2866331D01*
X1972183Y2867591D01*
X1959387Y2866331D01*
X1947083Y2862598D01*
X1935743Y2856537D01*
X1925803Y2848380D01*
X1917646Y2838440D01*
X1911585Y2827101D01*
X1907853Y2814796D01*
X1906592Y2802000D01*
X1907853Y2789204D01*
X1911585Y2776899D01*
X1917646Y2765560D01*
X1925803Y2755620D01*
X1935743Y2747463D01*
X1947083Y2741402D01*
X1959387Y2737669D01*
X1972183Y2736409D01*
X1984979Y2737669D01*
X1997284Y2741402D01*
X2008623Y2747463D01*
X2018563Y2755620D01*
X2023776Y2761973D01*
X2363407D01*
X2368620Y2755620D01*
X2378560Y2747463D01*
X2389899Y2741402D01*
X2402204Y2737669D01*
X2415000Y2736409D01*
X2427796Y2737669D01*
X2440101Y2741402D01*
X2451440Y2747463D01*
X2461380Y2755620D01*
X2469537Y2765560D01*
X2475598Y2776899D01*
X2479331Y2789204D01*
X2480591Y2802000D01*
X2479331Y2814796D01*
X2475598Y2827101D01*
X2469537Y2838440D01*
X2461380Y2848380D01*
X2451440Y2856537D01*
X2440101Y2862598D01*
X2427796Y2866331D01*
X2415000Y2867591D01*
D02*
G37*
G36*
X785000Y2839657D02*
X773361Y2838511D01*
X762170Y2835116D01*
X751856Y2829603D01*
X742816Y2822184D01*
X735397Y2813144D01*
X734576Y2811607D01*
X729592Y2811199D01*
X723777Y2818777D01*
X712420Y2827492D01*
X699193Y2832971D01*
X697500Y2833193D01*
Y2780000D01*
Y2726807D01*
X699193Y2727029D01*
X712420Y2732508D01*
X723777Y2741223D01*
X729592Y2748801D01*
X734576Y2748393D01*
X735397Y2746856D01*
X742816Y2737816D01*
X751856Y2730397D01*
X762170Y2724884D01*
X773361Y2721489D01*
X785000Y2720343D01*
X796639Y2721489D01*
X807830Y2724884D01*
X818144Y2730397D01*
X827184Y2737816D01*
X834603Y2746856D01*
X840116Y2757170D01*
X843511Y2768361D01*
X844657Y2780000D01*
X843511Y2791639D01*
X840116Y2802830D01*
X834603Y2813144D01*
X827184Y2822184D01*
X818144Y2829603D01*
X807830Y2835116D01*
X796639Y2838511D01*
X785000Y2839657D01*
D02*
G37*
G36*
X1739500Y2839430D02*
Y2792500D01*
X1786430D01*
X1783165Y2803264D01*
X1777547Y2813775D01*
X1769987Y2822987D01*
X1760775Y2830547D01*
X1750264Y2836165D01*
X1739500Y2839430D01*
D02*
G37*
G36*
X1714500D02*
X1703736Y2836165D01*
X1693225Y2830547D01*
X1684013Y2822987D01*
X1676453Y2813775D01*
X1670835Y2803264D01*
X1667570Y2792500D01*
X1714500D01*
Y2839430D01*
D02*
G37*
G36*
X3225000Y2867817D02*
X3212160Y2866552D01*
X3199813Y2862807D01*
X3188434Y2856725D01*
X3178460Y2848540D01*
X3170275Y2838566D01*
X3164193Y2827187D01*
X3160448Y2814840D01*
X3159183Y2802000D01*
X3160448Y2789160D01*
X3164193Y2776813D01*
X3170275Y2765434D01*
X3178460Y2755460D01*
X3188434Y2747275D01*
X3199813Y2741193D01*
X3212160Y2737448D01*
X3225000Y2736183D01*
X3237840Y2737448D01*
X3250187Y2741193D01*
X3261566Y2747275D01*
X3271539Y2755460D01*
X3279725Y2765434D01*
X3285807Y2776813D01*
X3289552Y2789160D01*
X3290817Y2802000D01*
X3289552Y2814840D01*
X3285807Y2827187D01*
X3279725Y2838566D01*
X3271539Y2848540D01*
X3261566Y2856725D01*
X3250187Y2862807D01*
X3237840Y2866552D01*
X3225000Y2867817D01*
D02*
G37*
G36*
X3067308D02*
X3054467Y2866552D01*
X3042121Y2862807D01*
X3030742Y2856725D01*
X3020768Y2848540D01*
X3012583Y2838566D01*
X3006501Y2827187D01*
X3002755Y2814840D01*
X3001491Y2802000D01*
X3002755Y2789160D01*
X3006501Y2776813D01*
X3012583Y2765434D01*
X3020768Y2755460D01*
X3030742Y2747275D01*
X3042121Y2741193D01*
X3054467Y2737448D01*
X3067308Y2736183D01*
X3080148Y2737448D01*
X3092495Y2741193D01*
X3103874Y2747275D01*
X3113847Y2755460D01*
X3122032Y2765434D01*
X3128115Y2776813D01*
X3131860Y2789160D01*
X3133124Y2802000D01*
X3131860Y2814840D01*
X3128115Y2827187D01*
X3122032Y2838566D01*
X3113847Y2848540D01*
X3103874Y2856725D01*
X3092495Y2862807D01*
X3080148Y2866552D01*
X3067308Y2867817D01*
D02*
G37*
G36*
X646340Y2841340D02*
X523660D01*
Y2718660D01*
X646340D01*
Y2735480D01*
X650824Y2737692D01*
X657580Y2732508D01*
X670807Y2727029D01*
X672500Y2726807D01*
Y2780000D01*
Y2833193D01*
X670807Y2832971D01*
X657580Y2827492D01*
X650824Y2822308D01*
X646340Y2824520D01*
Y2841340D01*
D02*
G37*
G36*
X1069370Y2839370D02*
X950630D01*
Y2720630D01*
X1069370D01*
Y2839370D01*
D02*
G37*
G36*
X1786430Y2767500D02*
X1739500D01*
Y2720570D01*
X1750264Y2723835D01*
X1760775Y2729453D01*
X1769987Y2737013D01*
X1777547Y2746225D01*
X1783165Y2756736D01*
X1786430Y2767500D01*
D02*
G37*
G36*
X1714500D02*
X1667570D01*
X1670835Y2756736D01*
X1676453Y2746225D01*
X1684013Y2737013D01*
X1693225Y2729453D01*
X1703736Y2723835D01*
X1714500Y2720570D01*
Y2767500D01*
D02*
G37*
G36*
X1210000Y2839657D02*
X1198361Y2838511D01*
X1187170Y2835116D01*
X1176856Y2829603D01*
X1167816Y2822184D01*
X1160397Y2813144D01*
X1154884Y2802830D01*
X1151489Y2791639D01*
X1150343Y2780000D01*
X1151489Y2768361D01*
X1154884Y2757170D01*
X1160397Y2746856D01*
X1167816Y2737816D01*
X1176856Y2730397D01*
X1187170Y2724884D01*
X1198361Y2721489D01*
X1210000Y2720343D01*
X1221639Y2721489D01*
X1232830Y2724884D01*
X1243144Y2730397D01*
X1252184Y2737816D01*
X1259603Y2746856D01*
X1265116Y2757170D01*
X1268511Y2768361D01*
X1269657Y2780000D01*
X1268511Y2791639D01*
X1265116Y2802830D01*
X1259603Y2813144D01*
X1252184Y2822184D01*
X1243144Y2829603D01*
X1232830Y2835116D01*
X1221639Y2838511D01*
X1210000Y2839657D01*
D02*
G37*
G36*
X315000D02*
X303361Y2838511D01*
X292170Y2835116D01*
X281856Y2829603D01*
X272816Y2822184D01*
X265397Y2813144D01*
X259884Y2802830D01*
X256489Y2791639D01*
X255343Y2780000D01*
X256489Y2768361D01*
X259884Y2757170D01*
X265397Y2746856D01*
X272816Y2737816D01*
X281856Y2730397D01*
X292170Y2724884D01*
X303361Y2721489D01*
X315000Y2720343D01*
X326639Y2721489D01*
X337830Y2724884D01*
X348144Y2730397D01*
X357184Y2737816D01*
X364603Y2746856D01*
X370116Y2757170D01*
X373511Y2768361D01*
X374657Y2780000D01*
X373511Y2791639D01*
X370116Y2802830D01*
X364603Y2813144D01*
X357184Y2822184D01*
X348144Y2829603D01*
X337830Y2835116D01*
X326639Y2838511D01*
X315000Y2839657D01*
D02*
G37*
G36*
X1363000Y2845817D02*
X1350160Y2844552D01*
X1337813Y2840807D01*
X1326434Y2834725D01*
X1316460Y2826540D01*
X1308275Y2816566D01*
X1302193Y2805187D01*
X1298448Y2792840D01*
X1297183Y2780000D01*
X1298448Y2767160D01*
X1302193Y2754813D01*
X1308275Y2743434D01*
X1316460Y2733460D01*
X1326434Y2725275D01*
X1337813Y2719193D01*
X1350160Y2715448D01*
X1363000Y2714183D01*
X1375840Y2715448D01*
X1388187Y2719193D01*
X1399566Y2725275D01*
X1409540Y2733460D01*
X1417725Y2743434D01*
X1423807Y2754813D01*
X1427552Y2767160D01*
X1428817Y2780000D01*
X1427552Y2792840D01*
X1423807Y2805187D01*
X1417725Y2816566D01*
X1409540Y2826540D01*
X1399566Y2834725D01*
X1388187Y2840807D01*
X1375840Y2844552D01*
X1363000Y2845817D01*
D02*
G37*
G36*
X150000Y2839657D02*
X138361Y2838511D01*
X127170Y2835116D01*
X116856Y2829603D01*
X107816Y2822184D01*
X100397Y2813144D01*
X94884Y2802830D01*
X91489Y2791639D01*
X90343Y2780000D01*
X91489Y2768361D01*
X94884Y2757170D01*
X100397Y2746856D01*
X106540Y2739370D01*
X104463Y2734370D01*
X95630D01*
Y2692500D01*
X150000D01*
X204370D01*
Y2734370D01*
X195537D01*
X193459Y2739370D01*
X199603Y2746856D01*
X205116Y2757170D01*
X208511Y2768361D01*
X209657Y2780000D01*
X208511Y2791639D01*
X205116Y2802830D01*
X199603Y2813144D01*
X192184Y2822184D01*
X183144Y2829603D01*
X172830Y2835116D01*
X161639Y2838511D01*
X150000Y2839657D01*
D02*
G37*
G36*
X204370Y2667500D02*
X162500D01*
Y2625630D01*
X204370D01*
Y2667500D01*
D02*
G37*
G36*
X137500D02*
X95630D01*
Y2625630D01*
X137500D01*
Y2667500D01*
D02*
G37*
G36*
X2415000Y2640591D02*
X2402204Y2639331D01*
X2389899Y2635598D01*
X2378560Y2629537D01*
X2368620Y2621380D01*
X2363407Y2615027D01*
X2016593D01*
X2011380Y2621380D01*
X2001440Y2629537D01*
X1990101Y2635598D01*
X1977796Y2639331D01*
X1965000Y2640591D01*
X1952204Y2639331D01*
X1939899Y2635598D01*
X1928560Y2629537D01*
X1918620Y2621380D01*
X1910463Y2611440D01*
X1904402Y2600101D01*
X1900669Y2587796D01*
X1899409Y2575000D01*
X1900669Y2562204D01*
X1904402Y2549899D01*
X1910463Y2538560D01*
X1918620Y2528620D01*
X1928560Y2520463D01*
X1939899Y2514402D01*
X1952204Y2510669D01*
X1965000Y2509409D01*
X1977796Y2510669D01*
X1990101Y2514402D01*
X2001440Y2520463D01*
X2011380Y2528620D01*
X2016593Y2534973D01*
X2363407D01*
X2368620Y2528620D01*
X2378560Y2520463D01*
X2389899Y2514402D01*
X2402204Y2510669D01*
X2415000Y2509409D01*
X2427796Y2510669D01*
X2440101Y2514402D01*
X2451440Y2520463D01*
X2461380Y2528620D01*
X2469537Y2538560D01*
X2475598Y2549899D01*
X2479331Y2562204D01*
X2480591Y2575000D01*
X2479331Y2587796D01*
X2475598Y2600101D01*
X2469537Y2611440D01*
X2461380Y2621380D01*
X2451440Y2629537D01*
X2440101Y2635598D01*
X2427796Y2639331D01*
X2415000Y2640591D01*
D02*
G37*
G36*
X327500Y2633193D02*
Y2592500D01*
X368193D01*
X367971Y2594193D01*
X362492Y2607420D01*
X353777Y2618777D01*
X342420Y2627492D01*
X329193Y2632971D01*
X327500Y2633193D01*
D02*
G37*
G36*
X302500D02*
X300807Y2632971D01*
X287580Y2627492D01*
X276223Y2618777D01*
X267508Y2607420D01*
X262029Y2594193D01*
X261807Y2592500D01*
X302500D01*
Y2633193D01*
D02*
G37*
G36*
X1650000Y2609955D02*
X1637071Y2608253D01*
X1625023Y2603262D01*
X1614677Y2595323D01*
X1606738Y2584977D01*
X1602706Y2575244D01*
X1597294D01*
X1593262Y2584977D01*
X1585323Y2595323D01*
X1574977Y2603262D01*
X1562929Y2608253D01*
X1550000Y2609955D01*
X1537071Y2608253D01*
X1525023Y2603262D01*
X1514677Y2595323D01*
X1506738Y2584977D01*
X1502706Y2575244D01*
X1497294D01*
X1493262Y2584977D01*
X1485323Y2595323D01*
X1474977Y2603262D01*
X1462929Y2608253D01*
X1450000Y2609955D01*
X1437071Y2608253D01*
X1425023Y2603262D01*
X1414677Y2595323D01*
X1406738Y2584977D01*
X1402706Y2575244D01*
X1397294D01*
X1393262Y2584977D01*
X1385323Y2595323D01*
X1374977Y2603262D01*
X1362929Y2608253D01*
X1350000Y2609955D01*
X1337071Y2608253D01*
X1325023Y2603262D01*
X1314677Y2595323D01*
X1306738Y2584977D01*
X1302706Y2575244D01*
X1297294D01*
X1293262Y2584977D01*
X1285323Y2595323D01*
X1274977Y2603262D01*
X1262929Y2608253D01*
X1250000Y2609955D01*
X1237071Y2608253D01*
X1225023Y2603262D01*
X1214677Y2595323D01*
X1206738Y2584977D01*
X1201747Y2572929D01*
X1200045Y2560000D01*
X1201747Y2547071D01*
X1206738Y2535023D01*
X1214677Y2524677D01*
X1225023Y2516738D01*
X1230359Y2514528D01*
X1229364Y2509528D01*
X1200473D01*
Y2410472D01*
X1299527D01*
Y2439364D01*
X1304527Y2440359D01*
X1306738Y2435023D01*
X1314677Y2424677D01*
X1325023Y2416738D01*
X1337071Y2411747D01*
X1350000Y2410045D01*
X1362929Y2411747D01*
X1374977Y2416738D01*
X1385323Y2424677D01*
X1393262Y2435023D01*
X1398253Y2447071D01*
X1399955Y2460000D01*
X1398253Y2472929D01*
X1393262Y2484977D01*
X1385323Y2495323D01*
X1374977Y2503262D01*
X1365244Y2507294D01*
Y2512706D01*
X1374977Y2516738D01*
X1385323Y2524677D01*
X1393262Y2535023D01*
X1397294Y2544756D01*
X1402706D01*
X1406738Y2535023D01*
X1414677Y2524677D01*
X1425023Y2516738D01*
X1437071Y2511747D01*
X1450000Y2510045D01*
X1462929Y2511747D01*
X1474977Y2516738D01*
X1485323Y2524677D01*
X1493262Y2535023D01*
X1497294Y2544756D01*
X1502706D01*
X1506738Y2535023D01*
X1514677Y2524677D01*
X1525023Y2516738D01*
X1534756Y2512706D01*
Y2507294D01*
X1525023Y2503262D01*
X1514677Y2495323D01*
X1506738Y2484977D01*
X1501747Y2472929D01*
X1500045Y2460000D01*
X1501747Y2447071D01*
X1506738Y2435023D01*
X1514677Y2424677D01*
X1525023Y2416738D01*
X1537071Y2411747D01*
X1550000Y2410045D01*
X1562929Y2411747D01*
X1574977Y2416738D01*
X1585323Y2424677D01*
X1593262Y2435023D01*
X1597294Y2444756D01*
X1602706D01*
X1606738Y2435023D01*
X1614677Y2424677D01*
X1625023Y2416738D01*
X1637071Y2411747D01*
X1650000Y2410045D01*
X1662929Y2411747D01*
X1674977Y2416738D01*
X1685323Y2424677D01*
X1693262Y2435023D01*
X1698253Y2447071D01*
X1699955Y2460000D01*
X1698253Y2472929D01*
X1693262Y2484977D01*
X1685323Y2495323D01*
X1674977Y2503262D01*
X1665244Y2507294D01*
Y2512706D01*
X1674977Y2516738D01*
X1685323Y2524677D01*
X1693262Y2535023D01*
X1698253Y2547071D01*
X1699955Y2560000D01*
X1698253Y2572929D01*
X1693262Y2584977D01*
X1685323Y2595323D01*
X1674977Y2603262D01*
X1662929Y2608253D01*
X1650000Y2609955D01*
D02*
G37*
G36*
X368193Y2567500D02*
X327500D01*
Y2526807D01*
X329193Y2527029D01*
X342420Y2532508D01*
X353777Y2541223D01*
X362492Y2552580D01*
X367971Y2565807D01*
X368193Y2567500D01*
D02*
G37*
G36*
X302500D02*
X261807D01*
X262029Y2565807D01*
X267508Y2552580D01*
X276223Y2541223D01*
X287580Y2532508D01*
X300807Y2527029D01*
X302500Y2526807D01*
Y2567500D01*
D02*
G37*
G36*
X657500Y2533193D02*
Y2492500D01*
X698193D01*
X697971Y2494193D01*
X692492Y2507420D01*
X683777Y2518777D01*
X672420Y2527492D01*
X659193Y2532971D01*
X657500Y2533193D01*
D02*
G37*
G36*
X632500D02*
X630807Y2532971D01*
X617580Y2527492D01*
X606223Y2518777D01*
X597508Y2507420D01*
X592029Y2494193D01*
X591807Y2492500D01*
X632500D01*
Y2533193D01*
D02*
G37*
G36*
X1462500Y2503019D02*
Y2472500D01*
X1493018D01*
X1488895Y2482456D01*
X1481757Y2491757D01*
X1472456Y2498895D01*
X1462500Y2503019D01*
D02*
G37*
G36*
X1437500D02*
X1427544Y2498895D01*
X1418243Y2491757D01*
X1411105Y2482456D01*
X1406982Y2472500D01*
X1437500D01*
Y2503019D01*
D02*
G37*
G36*
X698193Y2467500D02*
X657500D01*
Y2426807D01*
X659193Y2427029D01*
X672420Y2432508D01*
X683777Y2441223D01*
X692492Y2452580D01*
X697971Y2465807D01*
X698193Y2467500D01*
D02*
G37*
G36*
X632500D02*
X591807D01*
X592029Y2465807D01*
X597508Y2452580D01*
X606223Y2441223D01*
X617580Y2432508D01*
X630807Y2427029D01*
X632500Y2426807D01*
Y2467500D01*
D02*
G37*
G36*
X845000Y2539657D02*
X833361Y2538511D01*
X822170Y2535116D01*
X811856Y2529603D01*
X802816Y2522184D01*
X795397Y2513144D01*
X789884Y2502830D01*
X786489Y2491639D01*
X785343Y2480000D01*
X786489Y2468361D01*
X789884Y2457170D01*
X795397Y2446856D01*
X802816Y2437816D01*
X811856Y2430397D01*
X822170Y2424884D01*
X833361Y2421489D01*
X845000Y2420343D01*
X856639Y2421489D01*
X867830Y2424884D01*
X878144Y2430397D01*
X887184Y2437816D01*
X894603Y2446856D01*
X900116Y2457170D01*
X903511Y2468361D01*
X904657Y2480000D01*
X903511Y2491639D01*
X900116Y2502830D01*
X894603Y2513144D01*
X887184Y2522184D01*
X878144Y2529603D01*
X867830Y2535116D01*
X856639Y2538511D01*
X845000Y2539657D01*
D02*
G37*
G36*
X1493018Y2447500D02*
X1462500D01*
Y2416981D01*
X1472456Y2421105D01*
X1481757Y2428243D01*
X1488895Y2437544D01*
X1493018Y2447500D01*
D02*
G37*
G36*
X1437500D02*
X1406982D01*
X1411105Y2437544D01*
X1418243Y2428243D01*
X1427544Y2421105D01*
X1437500Y2416981D01*
Y2447500D01*
D02*
G37*
G36*
X3225000Y2503817D02*
X3212160Y2502552D01*
X3199813Y2498807D01*
X3188434Y2492725D01*
X3178460Y2484540D01*
X3170275Y2474566D01*
X3164193Y2463187D01*
X3160448Y2450840D01*
X3159183Y2438000D01*
X3160448Y2425160D01*
X3164193Y2412813D01*
X3170275Y2401434D01*
X3178460Y2391460D01*
X3188434Y2383275D01*
X3199813Y2377193D01*
X3212160Y2373448D01*
X3225000Y2372183D01*
X3237840Y2373448D01*
X3250187Y2377193D01*
X3261566Y2383275D01*
X3271539Y2391460D01*
X3279725Y2401434D01*
X3285807Y2412813D01*
X3289552Y2425160D01*
X3290817Y2438000D01*
X3289552Y2450840D01*
X3285807Y2463187D01*
X3279725Y2474566D01*
X3271539Y2484540D01*
X3261566Y2492725D01*
X3250187Y2498807D01*
X3237840Y2502552D01*
X3225000Y2503817D01*
D02*
G37*
G36*
X3067308D02*
X3054467Y2502552D01*
X3042121Y2498807D01*
X3030742Y2492725D01*
X3020768Y2484540D01*
X3012583Y2474566D01*
X3006501Y2463187D01*
X3002755Y2450840D01*
X3001491Y2438000D01*
X3002755Y2425160D01*
X3006501Y2412813D01*
X3012583Y2401434D01*
X3020768Y2391460D01*
X3030742Y2383275D01*
X3042121Y2377193D01*
X3054467Y2373448D01*
X3067308Y2372183D01*
X3080148Y2373448D01*
X3092495Y2377193D01*
X3103874Y2383275D01*
X3113847Y2391460D01*
X3122032Y2401434D01*
X3128115Y2412813D01*
X3131860Y2425160D01*
X3133124Y2438000D01*
X3131860Y2450840D01*
X3128115Y2463187D01*
X3122032Y2474566D01*
X3113847Y2484540D01*
X3103874Y2492725D01*
X3092495Y2498807D01*
X3080148Y2502552D01*
X3067308Y2503817D01*
D02*
G37*
G36*
X3195000Y2282896D02*
X3180016Y2280924D01*
X3166052Y2275140D01*
X3154062Y2265939D01*
X3147500Y2257388D01*
X3142500D01*
X3135938Y2265939D01*
X3123948Y2275140D01*
X3109984Y2280924D01*
X3095000Y2282896D01*
X3080016Y2280924D01*
X3066052Y2275140D01*
X3054062Y2265939D01*
X3047500Y2257388D01*
X3042500D01*
X3035938Y2265939D01*
X3023948Y2275140D01*
X3009984Y2280924D01*
X2995000Y2282896D01*
X2980016Y2280924D01*
X2966052Y2275140D01*
X2954062Y2265939D01*
X2947435Y2257303D01*
X2942435D01*
X2935808Y2265939D01*
X2923818Y2275140D01*
X2909854Y2280924D01*
X2894870Y2282896D01*
X2879886Y2280924D01*
X2865922Y2275140D01*
X2853932Y2265939D01*
X2847420Y2257452D01*
X2842420D01*
X2835938Y2265899D01*
X2823948Y2275100D01*
X2809984Y2280884D01*
X2795000Y2282856D01*
X2780016Y2280884D01*
X2766052Y2275100D01*
X2754062Y2265899D01*
X2747435Y2257263D01*
X2742435D01*
X2735808Y2265899D01*
X2723818Y2275100D01*
X2709854Y2280884D01*
X2694870Y2282856D01*
X2679886Y2280884D01*
X2665922Y2275100D01*
X2653932Y2265899D01*
X2647450Y2257452D01*
X2642450D01*
X2635938Y2265939D01*
X2623948Y2275140D01*
X2609984Y2280924D01*
X2595000Y2282896D01*
X2580016Y2280924D01*
X2566052Y2275140D01*
X2554062Y2265939D01*
X2544861Y2253949D01*
X2539077Y2239985D01*
X2537105Y2225001D01*
X2539077Y2210017D01*
X2544861Y2196053D01*
X2554062Y2184063D01*
X2566052Y2174862D01*
X2580016Y2169078D01*
X2595000Y2167106D01*
X2609984Y2169078D01*
X2623948Y2174862D01*
X2635938Y2184063D01*
X2642420Y2192510D01*
X2647420D01*
X2653932Y2184023D01*
X2665922Y2174822D01*
X2679886Y2169038D01*
X2694870Y2167066D01*
X2709854Y2169038D01*
X2723818Y2174822D01*
X2735808Y2184023D01*
X2742435Y2192659D01*
X2747435D01*
X2754062Y2184023D01*
X2766052Y2174822D01*
X2780016Y2169038D01*
X2795000Y2167066D01*
X2809984Y2169038D01*
X2823948Y2174822D01*
X2835938Y2184023D01*
X2842450Y2192510D01*
X2847450D01*
X2853932Y2184063D01*
X2865922Y2174862D01*
X2879886Y2169078D01*
X2894870Y2167106D01*
X2909854Y2169078D01*
X2923818Y2174862D01*
X2935808Y2184063D01*
X2942435Y2192699D01*
X2947435D01*
X2954062Y2184063D01*
X2966052Y2174862D01*
X2980016Y2169078D01*
X2995000Y2167106D01*
X3009984Y2169078D01*
X3023948Y2174862D01*
X3035938Y2184063D01*
X3042500Y2192614D01*
X3047500D01*
X3054062Y2184063D01*
X3066052Y2174862D01*
X3080016Y2169078D01*
X3095000Y2167106D01*
X3109984Y2169078D01*
X3123948Y2174862D01*
X3135938Y2184063D01*
X3142500Y2192614D01*
X3147500D01*
X3154062Y2184063D01*
X3166052Y2174862D01*
X3180016Y2169078D01*
X3195000Y2167106D01*
X3209984Y2169078D01*
X3223948Y2174862D01*
X3235938Y2184063D01*
X3242420Y2192510D01*
X3247420D01*
X3253932Y2184023D01*
X3265922Y2174822D01*
X3279886Y2169038D01*
X3294870Y2167066D01*
X3309854Y2169038D01*
X3323818Y2174822D01*
X3335808Y2184023D01*
X3342435Y2192659D01*
X3347435D01*
X3354062Y2184023D01*
X3366052Y2174822D01*
X3380016Y2169038D01*
X3395000Y2167066D01*
X3409984Y2169038D01*
X3423948Y2174822D01*
X3435938Y2184023D01*
X3445139Y2196013D01*
X3450923Y2209977D01*
X3452895Y2224961D01*
X3450923Y2239945D01*
X3445139Y2253909D01*
X3435938Y2265899D01*
X3423948Y2275100D01*
X3409984Y2280884D01*
X3395000Y2282856D01*
X3380016Y2280884D01*
X3366052Y2275100D01*
X3354062Y2265899D01*
X3347435Y2257263D01*
X3342435D01*
X3335808Y2265899D01*
X3323818Y2275100D01*
X3309854Y2280884D01*
X3294870Y2282856D01*
X3279886Y2280884D01*
X3265922Y2275100D01*
X3253932Y2265899D01*
X3247450Y2257452D01*
X3242450D01*
X3235938Y2265939D01*
X3223948Y2275140D01*
X3209984Y2280924D01*
X3195000Y2282896D01*
D02*
G37*
G36*
X902000Y2365817D02*
X889160Y2364552D01*
X876813Y2360807D01*
X865434Y2354725D01*
X855460Y2346540D01*
X847275Y2336566D01*
X841193Y2325187D01*
X837448Y2312840D01*
X836183Y2300000D01*
X837448Y2287160D01*
X841193Y2274813D01*
X847275Y2263434D01*
X855460Y2253460D01*
X865434Y2245275D01*
X876813Y2239193D01*
X889160Y2235448D01*
X902000Y2234183D01*
X914840Y2235448D01*
X927187Y2239193D01*
X938566Y2245275D01*
X948540Y2253460D01*
X956725Y2263434D01*
X962807Y2274813D01*
X966552Y2287160D01*
X967817Y2300000D01*
X966552Y2312840D01*
X962807Y2325187D01*
X956725Y2336566D01*
X948540Y2346540D01*
X938566Y2354725D01*
X927187Y2360807D01*
X914840Y2364552D01*
X902000Y2365817D01*
D02*
G37*
G36*
X538000D02*
X525160Y2364552D01*
X512813Y2360807D01*
X501434Y2354725D01*
X491460Y2346540D01*
X483275Y2336566D01*
X477193Y2325187D01*
X473448Y2312840D01*
X472183Y2300000D01*
X473448Y2287160D01*
X477193Y2274813D01*
X483275Y2263434D01*
X491460Y2253460D01*
X501434Y2245275D01*
X512813Y2239193D01*
X525160Y2235448D01*
X538000Y2234183D01*
X550840Y2235448D01*
X563187Y2239193D01*
X574566Y2245275D01*
X584540Y2253460D01*
X592725Y2263434D01*
X598807Y2274813D01*
X602552Y2287160D01*
X603817Y2300000D01*
X602552Y2312840D01*
X598807Y2325187D01*
X592725Y2336566D01*
X584540Y2346540D01*
X574566Y2354725D01*
X563187Y2360807D01*
X550840Y2364552D01*
X538000Y2365817D01*
D02*
G37*
G36*
X990000Y2550591D02*
X977204Y2549331D01*
X964899Y2545598D01*
X953560Y2539537D01*
X943620Y2531380D01*
X935463Y2521440D01*
X929402Y2510101D01*
X925669Y2497796D01*
X924409Y2485000D01*
X925669Y2472204D01*
X929402Y2459899D01*
X935463Y2448560D01*
X943620Y2438620D01*
X953560Y2430463D01*
X964899Y2424402D01*
X977204Y2420669D01*
X990000Y2419409D01*
X1002796Y2420669D01*
X1015101Y2424402D01*
X1026440Y2430463D01*
X1036380Y2438620D01*
X1043139Y2446856D01*
X1094973D01*
Y2260000D01*
X1096336Y2249640D01*
X1100335Y2239986D01*
X1106696Y2231696D01*
X1114986Y2225335D01*
X1124640Y2221336D01*
X1135000Y2219973D01*
X1298407D01*
X1303620Y2213620D01*
X1313560Y2205463D01*
X1324899Y2199402D01*
X1337204Y2195669D01*
X1350000Y2194409D01*
X1362796Y2195669D01*
X1375101Y2199402D01*
X1386440Y2205463D01*
X1396380Y2213620D01*
X1401593Y2219973D01*
X2213407D01*
X2218620Y2213620D01*
X2228560Y2205463D01*
X2239899Y2199402D01*
X2252204Y2195669D01*
X2265000Y2194409D01*
X2277796Y2195669D01*
X2290101Y2199402D01*
X2301440Y2205463D01*
X2311380Y2213620D01*
X2319537Y2223560D01*
X2325598Y2234899D01*
X2329331Y2247204D01*
X2330591Y2260000D01*
X2329331Y2272796D01*
X2325598Y2285101D01*
X2319537Y2296440D01*
X2311380Y2306380D01*
X2301440Y2314537D01*
X2290101Y2320598D01*
X2277796Y2324331D01*
X2265000Y2325591D01*
X2252204Y2324331D01*
X2239899Y2320598D01*
X2228560Y2314537D01*
X2218620Y2306380D01*
X2213407Y2300027D01*
X1401593D01*
X1396380Y2306380D01*
X1386440Y2314537D01*
X1375101Y2320598D01*
X1362796Y2324331D01*
X1350000Y2325591D01*
X1337204Y2324331D01*
X1324899Y2320598D01*
X1313560Y2314537D01*
X1303620Y2306380D01*
X1298407Y2300027D01*
X1175027D01*
Y2486884D01*
X1173664Y2497244D01*
X1169665Y2506898D01*
X1163304Y2515188D01*
X1155014Y2521549D01*
X1145360Y2525547D01*
X1135000Y2526911D01*
X1040047D01*
X1036380Y2531380D01*
X1026440Y2539537D01*
X1015101Y2545598D01*
X1002796Y2549331D01*
X990000Y2550591D01*
D02*
G37*
G36*
X935000Y2212817D02*
X922160Y2211552D01*
X909813Y2207807D01*
X898434Y2201725D01*
X888460Y2193540D01*
X883116Y2187027D01*
X459000D01*
X448640Y2185664D01*
X438986Y2181665D01*
X430696Y2175304D01*
X424335Y2167014D01*
X420337Y2157360D01*
X418973Y2147000D01*
Y2072325D01*
X396675D01*
Y2055027D01*
X283954D01*
X282184Y2057184D01*
X273144Y2064603D01*
X262830Y2070116D01*
X251639Y2073511D01*
X240000Y2074657D01*
X228361Y2073511D01*
X217170Y2070116D01*
X206856Y2064603D01*
X197816Y2057184D01*
X190397Y2048144D01*
X184884Y2037830D01*
X181489Y2026639D01*
X180343Y2015000D01*
X181489Y2003361D01*
X184884Y1992170D01*
X190397Y1981856D01*
X197816Y1972816D01*
X206856Y1965397D01*
X217170Y1959884D01*
X228361Y1956489D01*
X240000Y1955343D01*
X251639Y1956489D01*
X262830Y1959884D01*
X273144Y1965397D01*
X282184Y1972816D01*
X283954Y1974973D01*
X396675D01*
Y1947675D01*
X521325D01*
Y2072325D01*
X499027D01*
Y2106973D01*
X883116D01*
X888460Y2100460D01*
X898434Y2092275D01*
X909813Y2086193D01*
X922160Y2082448D01*
X935000Y2081183D01*
X947840Y2082448D01*
X960187Y2086193D01*
X971566Y2092275D01*
X981540Y2100460D01*
X989725Y2110434D01*
X995807Y2121813D01*
X999552Y2134160D01*
X1000817Y2147000D01*
X999552Y2159840D01*
X995807Y2172187D01*
X989725Y2183566D01*
X981540Y2193540D01*
X971566Y2201725D01*
X960187Y2207807D01*
X947840Y2211552D01*
X935000Y2212817D01*
D02*
G37*
G36*
X2397000Y2195817D02*
X2384160Y2194552D01*
X2371813Y2190807D01*
X2360434Y2184725D01*
X2350460Y2176540D01*
X2342275Y2166566D01*
X2336193Y2155187D01*
X2332448Y2142840D01*
X2331183Y2130000D01*
X2332448Y2117160D01*
X2336193Y2104813D01*
X2342275Y2093434D01*
X2350460Y2083460D01*
X2360434Y2075275D01*
X2371813Y2069193D01*
X2384160Y2065448D01*
X2397000Y2064183D01*
X2409840Y2065448D01*
X2422187Y2069193D01*
X2433566Y2075275D01*
X2443540Y2083460D01*
X2451725Y2093434D01*
X2457807Y2104813D01*
X2461552Y2117160D01*
X2462817Y2130000D01*
X2461552Y2142840D01*
X2457807Y2155187D01*
X2451725Y2166566D01*
X2443540Y2176540D01*
X2433566Y2184725D01*
X2422187Y2190807D01*
X2409840Y2194552D01*
X2397000Y2195817D01*
D02*
G37*
G36*
X2033000D02*
X2020160Y2194552D01*
X2007813Y2190807D01*
X1996434Y2184725D01*
X1986460Y2176540D01*
X1978275Y2166566D01*
X1972193Y2155187D01*
X1968448Y2142840D01*
X1967183Y2130000D01*
X1968448Y2117160D01*
X1972193Y2104813D01*
X1978275Y2093434D01*
X1986460Y2083460D01*
X1996434Y2075275D01*
X2007813Y2069193D01*
X2020160Y2065448D01*
X2033000Y2064183D01*
X2045840Y2065448D01*
X2058187Y2069193D01*
X2069566Y2075275D01*
X2079540Y2083460D01*
X2087725Y2093434D01*
X2093807Y2104813D01*
X2097552Y2117160D01*
X2098817Y2130000D01*
X2097552Y2142840D01*
X2093807Y2155187D01*
X2087725Y2166566D01*
X2079540Y2176540D01*
X2069566Y2184725D01*
X2058187Y2190807D01*
X2045840Y2194552D01*
X2033000Y2195817D01*
D02*
G37*
G36*
X1462500Y2074195D02*
Y2027500D01*
X1509195D01*
X1505956Y2038178D01*
X1500359Y2048649D01*
X1492827Y2057827D01*
X1483649Y2065359D01*
X1473178Y2070956D01*
X1462500Y2074195D01*
D02*
G37*
G36*
X1437500D02*
X1426822Y2070956D01*
X1416351Y2065359D01*
X1407173Y2057827D01*
X1399641Y2048649D01*
X1394044Y2038178D01*
X1390805Y2027500D01*
X1437500D01*
Y2074195D01*
D02*
G37*
G36*
X1509195Y2002500D02*
X1462500D01*
Y1955805D01*
X1473178Y1959044D01*
X1483649Y1964641D01*
X1492827Y1972173D01*
X1500359Y1981351D01*
X1505956Y1991822D01*
X1509195Y2002500D01*
D02*
G37*
G36*
X1437500D02*
X1390805D01*
X1394044Y1991822D01*
X1399641Y1981351D01*
X1407173Y1972173D01*
X1416351Y1964641D01*
X1426822Y1959044D01*
X1437500Y1955805D01*
Y2002500D01*
D02*
G37*
G36*
X715000Y2072627D02*
X702782Y2071423D01*
X691034Y2067859D01*
X680207Y2062072D01*
X670716Y2054284D01*
X662928Y2044793D01*
X657141Y2033966D01*
X653577Y2022218D01*
X652373Y2010000D01*
X653577Y1997782D01*
X657141Y1986034D01*
X662928Y1975207D01*
X670716Y1965716D01*
X680207Y1957928D01*
X691034Y1952141D01*
X702782Y1948577D01*
X715000Y1947373D01*
X727218Y1948577D01*
X738966Y1952141D01*
X749793Y1957928D01*
X759284Y1965716D01*
X767072Y1975207D01*
X772859Y1986034D01*
X776423Y1997782D01*
X777627Y2010000D01*
X776423Y2022218D01*
X772859Y2033966D01*
X767072Y2044793D01*
X759284Y2054284D01*
X749793Y2062072D01*
X738966Y2067859D01*
X727218Y2071423D01*
X715000Y2072627D01*
D02*
G37*
G36*
X2402000Y2030817D02*
X2389160Y2029552D01*
X2376813Y2025807D01*
X2365434Y2019725D01*
X2355460Y2011540D01*
X2347275Y2001566D01*
X2341193Y1990187D01*
X2337448Y1977840D01*
X2336183Y1965000D01*
X2337448Y1952160D01*
X2341193Y1939813D01*
X2347275Y1928434D01*
X2355460Y1918460D01*
X2365434Y1910275D01*
X2376813Y1904193D01*
X2389160Y1900448D01*
X2402000Y1899183D01*
X2414840Y1900448D01*
X2427187Y1904193D01*
X2438566Y1910275D01*
X2448540Y1918460D01*
X2456725Y1928434D01*
X2462807Y1939813D01*
X2466552Y1952160D01*
X2467817Y1965000D01*
X2466552Y1977840D01*
X2462807Y1990187D01*
X2456725Y2001566D01*
X2448540Y2011540D01*
X2438566Y2019725D01*
X2427187Y2025807D01*
X2414840Y2029552D01*
X2402000Y2030817D01*
D02*
G37*
G36*
X2038000D02*
X2025160Y2029552D01*
X2012813Y2025807D01*
X2001434Y2019725D01*
X1991460Y2011540D01*
X1983275Y2001566D01*
X1977193Y1990187D01*
X1973448Y1977840D01*
X1972183Y1965000D01*
X1973448Y1952160D01*
X1977193Y1939813D01*
X1983275Y1928434D01*
X1991460Y1918460D01*
X2001434Y1910275D01*
X2012813Y1904193D01*
X2025160Y1900448D01*
X2038000Y1899183D01*
X2050840Y1900448D01*
X2063187Y1904193D01*
X2074566Y1910275D01*
X2084540Y1918460D01*
X2092725Y1928434D01*
X2098807Y1939813D01*
X2102552Y1952160D01*
X2103817Y1965000D01*
X2102552Y1977840D01*
X2098807Y1990187D01*
X2092725Y2001566D01*
X2084540Y2011540D01*
X2074566Y2019725D01*
X2063187Y2025807D01*
X2050840Y2029552D01*
X2038000Y2030817D01*
D02*
G37*
G36*
X471500Y1888174D02*
Y1844500D01*
X515174D01*
X514850Y1846965D01*
X509073Y1860910D01*
X499885Y1872885D01*
X487910Y1882073D01*
X473965Y1887850D01*
X471500Y1888174D01*
D02*
G37*
G36*
X446500D02*
X444035Y1887850D01*
X430090Y1882073D01*
X418115Y1872885D01*
X408927Y1860910D01*
X403151Y1846965D01*
X402826Y1844500D01*
X446500D01*
Y1888174D01*
D02*
G37*
G36*
X252500Y1868194D02*
Y1827500D01*
X293193D01*
X292971Y1829193D01*
X287492Y1842420D01*
X278777Y1853777D01*
X267420Y1862492D01*
X254193Y1867971D01*
X252500Y1868194D01*
D02*
G37*
G36*
X227500D02*
X225807Y1867971D01*
X212580Y1862492D01*
X201223Y1853777D01*
X192508Y1842420D01*
X187029Y1829193D01*
X186806Y1827500D01*
X227500D01*
Y1868194D01*
D02*
G37*
G36*
X515174Y1819500D02*
X471500D01*
Y1775826D01*
X473965Y1776150D01*
X487910Y1781927D01*
X499885Y1791115D01*
X509073Y1803090D01*
X514850Y1817035D01*
X515174Y1819500D01*
D02*
G37*
G36*
X446500D02*
X402826D01*
X403151Y1817035D01*
X408927Y1803090D01*
X418115Y1791115D01*
X430090Y1781927D01*
X444035Y1776150D01*
X446500Y1775826D01*
Y1819500D01*
D02*
G37*
G36*
X715000Y1894627D02*
X702782Y1893423D01*
X691034Y1889859D01*
X680207Y1884072D01*
X670716Y1876284D01*
X662928Y1866793D01*
X657141Y1855966D01*
X653577Y1844218D01*
X652373Y1832000D01*
X653577Y1819782D01*
X657141Y1808034D01*
X662928Y1797207D01*
X670716Y1787716D01*
X680207Y1779928D01*
X691034Y1774141D01*
X702782Y1770577D01*
X715000Y1769373D01*
X727218Y1770577D01*
X738966Y1774141D01*
X749793Y1779928D01*
X759284Y1787716D01*
X767072Y1797207D01*
X772859Y1808034D01*
X776423Y1819782D01*
X777627Y1832000D01*
X776423Y1844218D01*
X772859Y1855966D01*
X767072Y1866793D01*
X759284Y1876284D01*
X749793Y1884072D01*
X738966Y1889859D01*
X727218Y1893423D01*
X715000Y1894627D01*
D02*
G37*
G36*
X293193Y1802500D02*
X252500D01*
Y1761806D01*
X254193Y1762029D01*
X267420Y1767508D01*
X278777Y1776223D01*
X287492Y1787580D01*
X292971Y1800807D01*
X293193Y1802500D01*
D02*
G37*
G36*
X227500D02*
X186806D01*
X187029Y1800807D01*
X192508Y1787580D01*
X201223Y1776223D01*
X212580Y1767508D01*
X225807Y1762029D01*
X227500Y1761806D01*
Y1802500D01*
D02*
G37*
G36*
X3295000Y1782895D02*
X3280016Y1780923D01*
X3266052Y1775139D01*
X3254062Y1765938D01*
X3247500Y1757387D01*
X3242500D01*
X3235938Y1765938D01*
X3223948Y1775139D01*
X3209984Y1780923D01*
X3195000Y1782895D01*
X3180016Y1780923D01*
X3166052Y1775139D01*
X3154062Y1765938D01*
X3147485Y1757367D01*
X3142485D01*
X3135938Y1765899D01*
X3123948Y1775100D01*
X3109984Y1780884D01*
X3095000Y1782856D01*
X3080016Y1780884D01*
X3066052Y1775100D01*
X3054062Y1765899D01*
X3047515Y1757367D01*
X3042515D01*
X3035938Y1765938D01*
X3023948Y1775139D01*
X3009984Y1780923D01*
X2995000Y1782895D01*
X2980016Y1780923D01*
X2966052Y1775139D01*
X2954062Y1765938D01*
X2947500Y1757387D01*
X2942500D01*
X2935938Y1765938D01*
X2923948Y1775139D01*
X2909984Y1780923D01*
X2895000Y1782895D01*
X2880016Y1780923D01*
X2866052Y1775139D01*
X2854062Y1765938D01*
X2847500Y1757387D01*
X2842500D01*
X2835938Y1765938D01*
X2823948Y1775139D01*
X2809984Y1780923D01*
X2795000Y1782895D01*
X2780016Y1780923D01*
X2766052Y1775139D01*
X2754062Y1765938D01*
X2747435Y1757302D01*
X2742435D01*
X2735808Y1765938D01*
X2723818Y1775139D01*
X2709854Y1780923D01*
X2694870Y1782895D01*
X2679886Y1780923D01*
X2665922Y1775139D01*
X2653932Y1765938D01*
X2647370Y1757387D01*
X2642370D01*
X2635808Y1765938D01*
X2623818Y1775139D01*
X2609854Y1780923D01*
X2594870Y1782895D01*
X2579886Y1780923D01*
X2565922Y1775139D01*
X2553932Y1765938D01*
X2544731Y1753948D01*
X2538947Y1739984D01*
X2536975Y1725000D01*
X2538947Y1710016D01*
X2544731Y1696052D01*
X2553932Y1684062D01*
X2565922Y1674861D01*
X2579886Y1669077D01*
X2594870Y1667105D01*
X2609854Y1669077D01*
X2623818Y1674861D01*
X2635808Y1684062D01*
X2642370Y1692613D01*
X2647370D01*
X2653932Y1684062D01*
X2665922Y1674861D01*
X2679886Y1669077D01*
X2694870Y1667105D01*
X2709854Y1669077D01*
X2723818Y1674861D01*
X2735808Y1684062D01*
X2742435Y1692698D01*
X2747435D01*
X2754062Y1684062D01*
X2766052Y1674861D01*
X2780016Y1669077D01*
X2795000Y1667105D01*
X2809984Y1669077D01*
X2823948Y1674861D01*
X2835938Y1684062D01*
X2842500Y1692613D01*
X2847500D01*
X2854062Y1684062D01*
X2866052Y1674861D01*
X2880016Y1669077D01*
X2895000Y1667105D01*
X2909984Y1669077D01*
X2923948Y1674861D01*
X2935938Y1684062D01*
X2942500Y1692613D01*
X2947500D01*
X2954062Y1684062D01*
X2966052Y1674861D01*
X2980016Y1669077D01*
X2995000Y1667105D01*
X3009984Y1669077D01*
X3023948Y1674861D01*
X3035938Y1684062D01*
X3042485Y1692594D01*
X3047485D01*
X3054062Y1684023D01*
X3066052Y1674822D01*
X3080016Y1669038D01*
X3095000Y1667066D01*
X3109984Y1669038D01*
X3123948Y1674822D01*
X3135938Y1684023D01*
X3142515Y1692594D01*
X3147515D01*
X3154062Y1684062D01*
X3166052Y1674861D01*
X3180016Y1669077D01*
X3195000Y1667105D01*
X3209984Y1669077D01*
X3223948Y1674861D01*
X3235938Y1684062D01*
X3242500Y1692613D01*
X3247500D01*
X3254062Y1684062D01*
X3266052Y1674861D01*
X3280016Y1669077D01*
X3295000Y1667105D01*
X3309984Y1669077D01*
X3323948Y1674861D01*
X3335938Y1684062D01*
X3342420Y1692509D01*
X3347420D01*
X3353932Y1684023D01*
X3365922Y1674822D01*
X3379886Y1669038D01*
X3394870Y1667066D01*
X3409854Y1669038D01*
X3423818Y1674822D01*
X3435808Y1684023D01*
X3445009Y1696013D01*
X3450793Y1709977D01*
X3452765Y1724961D01*
X3450793Y1739945D01*
X3445009Y1753909D01*
X3435808Y1765899D01*
X3423818Y1775100D01*
X3409854Y1780884D01*
X3394870Y1782856D01*
X3379886Y1780884D01*
X3365922Y1775100D01*
X3353932Y1765899D01*
X3347450Y1757452D01*
X3342450D01*
X3335938Y1765938D01*
X3323948Y1775139D01*
X3309984Y1780923D01*
X3295000Y1782895D01*
D02*
G37*
G36*
X2402000Y1855817D02*
X2389160Y1854552D01*
X2376813Y1850807D01*
X2365434Y1844725D01*
X2355460Y1836540D01*
X2347275Y1826566D01*
X2341193Y1815187D01*
X2337448Y1802840D01*
X2336183Y1790000D01*
X2337448Y1777160D01*
X2341193Y1764813D01*
X2347275Y1753434D01*
X2355460Y1743460D01*
X2365434Y1735275D01*
X2376813Y1729193D01*
X2389160Y1725448D01*
X2402000Y1724183D01*
X2414840Y1725448D01*
X2427187Y1729193D01*
X2438566Y1735275D01*
X2448540Y1743460D01*
X2456725Y1753434D01*
X2462807Y1764813D01*
X2466552Y1777160D01*
X2467817Y1790000D01*
X2466552Y1802840D01*
X2462807Y1815187D01*
X2456725Y1826566D01*
X2448540Y1836540D01*
X2438566Y1844725D01*
X2427187Y1850807D01*
X2414840Y1854552D01*
X2402000Y1855817D01*
D02*
G37*
G36*
X2038000D02*
X2025160Y1854552D01*
X2012813Y1850807D01*
X2001434Y1844725D01*
X1991460Y1836540D01*
X1983275Y1826566D01*
X1977193Y1815187D01*
X1973448Y1802840D01*
X1972183Y1790000D01*
X1973448Y1777160D01*
X1977193Y1764813D01*
X1983275Y1753434D01*
X1991460Y1743460D01*
X2001434Y1735275D01*
X2012813Y1729193D01*
X2025160Y1725448D01*
X2038000Y1724183D01*
X2050840Y1725448D01*
X2063187Y1729193D01*
X2074566Y1735275D01*
X2084540Y1743460D01*
X2092725Y1753434D01*
X2098807Y1764813D01*
X2102552Y1777160D01*
X2103817Y1790000D01*
X2102552Y1802840D01*
X2098807Y1815187D01*
X2092725Y1826566D01*
X2084540Y1836540D01*
X2074566Y1844725D01*
X2063187Y1850807D01*
X2050840Y1854552D01*
X2038000Y1855817D01*
D02*
G37*
G36*
X935000Y1848817D02*
X922160Y1847552D01*
X909813Y1843807D01*
X898434Y1837725D01*
X888460Y1829540D01*
X880275Y1819566D01*
X874193Y1808187D01*
X870448Y1795840D01*
X869183Y1783000D01*
X870448Y1770160D01*
X874193Y1757813D01*
X880275Y1746434D01*
X888460Y1736460D01*
X898434Y1728275D01*
X909813Y1722193D01*
X922160Y1718448D01*
X935000Y1717183D01*
X947840Y1718448D01*
X960187Y1722193D01*
X971566Y1728275D01*
X981540Y1736460D01*
X989725Y1746434D01*
X995807Y1757813D01*
X999552Y1770160D01*
X1000817Y1783000D01*
X999552Y1795840D01*
X995807Y1808187D01*
X989725Y1819566D01*
X981540Y1829540D01*
X971566Y1837725D01*
X960187Y1843807D01*
X947840Y1847552D01*
X935000Y1848817D01*
D02*
G37*
G36*
X2402000Y1712355D02*
X2389160Y1711091D01*
X2376813Y1707345D01*
X2365434Y1701263D01*
X2355460Y1693078D01*
X2347275Y1683104D01*
X2341193Y1671725D01*
X2337448Y1659379D01*
X2336183Y1646538D01*
X2337448Y1633698D01*
X2341193Y1621351D01*
X2347275Y1609973D01*
X2355460Y1599999D01*
X2365434Y1591814D01*
X2376813Y1585732D01*
X2389160Y1581986D01*
X2402000Y1580722D01*
X2414840Y1581986D01*
X2427187Y1585732D01*
X2438566Y1591814D01*
X2448540Y1599999D01*
X2456725Y1609973D01*
X2462807Y1621351D01*
X2466552Y1633698D01*
X2467817Y1646538D01*
X2466552Y1659379D01*
X2462807Y1671725D01*
X2456725Y1683104D01*
X2448540Y1693078D01*
X2438566Y1701263D01*
X2427187Y1707345D01*
X2414840Y1711091D01*
X2402000Y1712355D01*
D02*
G37*
G36*
X2038000D02*
X2025160Y1711091D01*
X2012813Y1707345D01*
X2001434Y1701263D01*
X1991460Y1693078D01*
X1983275Y1683104D01*
X1977193Y1671725D01*
X1973448Y1659379D01*
X1972183Y1646538D01*
X1973448Y1633698D01*
X1977193Y1621351D01*
X1983275Y1609973D01*
X1991460Y1599999D01*
X2001434Y1591814D01*
X2012813Y1585732D01*
X2025160Y1581986D01*
X2038000Y1580722D01*
X2050840Y1581986D01*
X2063187Y1585732D01*
X2074566Y1591814D01*
X2084540Y1599999D01*
X2092725Y1609973D01*
X2098807Y1621351D01*
X2102552Y1633698D01*
X2103817Y1646538D01*
X2102552Y1659379D01*
X2098807Y1671725D01*
X2092725Y1683104D01*
X2084540Y1693078D01*
X2074566Y1701263D01*
X2063187Y1707345D01*
X2050840Y1711091D01*
X2038000Y1712355D01*
D02*
G37*
G36*
X819370Y1624370D02*
X700630D01*
Y1505630D01*
X819370D01*
Y1624370D01*
D02*
G37*
G36*
X2402000Y1554663D02*
X2389160Y1553398D01*
X2376813Y1549653D01*
X2365434Y1543571D01*
X2355460Y1535386D01*
X2347275Y1525412D01*
X2341193Y1514033D01*
X2337448Y1501686D01*
X2336183Y1488846D01*
X2337448Y1476006D01*
X2341193Y1463659D01*
X2347275Y1452280D01*
X2355460Y1442306D01*
X2365434Y1434121D01*
X2376813Y1428039D01*
X2389160Y1424294D01*
X2402000Y1423029D01*
X2414840Y1424294D01*
X2427187Y1428039D01*
X2438566Y1434121D01*
X2448540Y1442306D01*
X2456725Y1452280D01*
X2462807Y1463659D01*
X2466552Y1476006D01*
X2467817Y1488846D01*
X2466552Y1501686D01*
X2462807Y1514033D01*
X2456725Y1525412D01*
X2448540Y1535386D01*
X2438566Y1543571D01*
X2427187Y1549653D01*
X2414840Y1553398D01*
X2402000Y1554663D01*
D02*
G37*
G36*
X2038000D02*
X2025160Y1553398D01*
X2012813Y1549653D01*
X2001434Y1543571D01*
X1991460Y1535386D01*
X1983275Y1525412D01*
X1977193Y1514033D01*
X1973448Y1501686D01*
X1972183Y1488846D01*
X1973448Y1476006D01*
X1977193Y1463659D01*
X1983275Y1452280D01*
X1991460Y1442306D01*
X2001434Y1434121D01*
X2012813Y1428039D01*
X2025160Y1424294D01*
X2038000Y1423029D01*
X2050840Y1424294D01*
X2063187Y1428039D01*
X2074566Y1434121D01*
X2084540Y1442306D01*
X2092725Y1452280D01*
X2098807Y1463659D01*
X2102552Y1476006D01*
X2103817Y1488846D01*
X2102552Y1501686D01*
X2098807Y1514033D01*
X2092725Y1525412D01*
X2084540Y1535386D01*
X2074566Y1543571D01*
X2063187Y1549653D01*
X2050840Y1553398D01*
X2038000Y1554663D01*
D02*
G37*
G36*
X605500Y1459430D02*
Y1412500D01*
X652431D01*
X649165Y1423264D01*
X643547Y1433775D01*
X635987Y1442987D01*
X626775Y1450547D01*
X616264Y1456165D01*
X605500Y1459430D01*
D02*
G37*
G36*
X580500D02*
X569736Y1456165D01*
X559225Y1450547D01*
X550013Y1442987D01*
X542453Y1433775D01*
X536835Y1423264D01*
X533569Y1412500D01*
X580500D01*
Y1459430D01*
D02*
G37*
G36*
X652431Y1387500D02*
X605500D01*
Y1340570D01*
X616264Y1343835D01*
X626775Y1349453D01*
X635987Y1357013D01*
X643547Y1366225D01*
X649165Y1376736D01*
X652431Y1387500D01*
D02*
G37*
G36*
X580500D02*
X533569D01*
X536835Y1376736D01*
X542453Y1366225D01*
X550013Y1357013D01*
X559225Y1349453D01*
X569736Y1343835D01*
X580500Y1340570D01*
Y1387500D01*
D02*
G37*
G36*
X960000Y1624657D02*
X948361Y1623511D01*
X937170Y1620116D01*
X926856Y1614603D01*
X917816Y1607184D01*
X910397Y1598144D01*
X904884Y1587830D01*
X901489Y1576639D01*
X900343Y1565000D01*
X901489Y1553361D01*
X904884Y1542170D01*
X910397Y1531856D01*
X916973Y1523843D01*
Y1451884D01*
X910460Y1446540D01*
X902275Y1436566D01*
X896193Y1425187D01*
X892448Y1412840D01*
X891183Y1400000D01*
X892448Y1387160D01*
X896193Y1374813D01*
X902275Y1363434D01*
X910460Y1353460D01*
X920434Y1345275D01*
X931813Y1339193D01*
X944160Y1335448D01*
X957000Y1334183D01*
X969840Y1335448D01*
X982187Y1339193D01*
X993566Y1345275D01*
X1003540Y1353460D01*
X1011725Y1363434D01*
X1017807Y1374813D01*
X1021552Y1387160D01*
X1022817Y1400000D01*
X1021552Y1412840D01*
X1017807Y1425187D01*
X1011725Y1436566D01*
X1003540Y1446540D01*
X997027Y1451884D01*
Y1518584D01*
X1002184Y1522816D01*
X1009603Y1531856D01*
X1015116Y1542170D01*
X1018511Y1553361D01*
X1019657Y1565000D01*
X1018511Y1576639D01*
X1015116Y1587830D01*
X1009603Y1598144D01*
X1002184Y1607184D01*
X993144Y1614603D01*
X982830Y1620116D01*
X971639Y1623511D01*
X960000Y1624657D01*
D02*
G37*
G36*
X3151952Y1402084D02*
X3139112Y1400820D01*
X3126765Y1397074D01*
X3115386Y1390992D01*
X3105412Y1382807D01*
X3097227Y1372833D01*
X3091145Y1361454D01*
X3087400Y1349108D01*
X3086135Y1336267D01*
X3087400Y1323427D01*
X3091145Y1311080D01*
X3097227Y1299701D01*
X3105412Y1289728D01*
X3115386Y1281543D01*
X3126765Y1275460D01*
X3139112Y1271715D01*
X3151952Y1270450D01*
X3164792Y1271715D01*
X3177139Y1275460D01*
X3188518Y1281543D01*
X3198492Y1289728D01*
X3206677Y1299701D01*
X3212759Y1311080D01*
X3216504Y1323427D01*
X3217769Y1336267D01*
X3216504Y1349108D01*
X3212759Y1361454D01*
X3206677Y1372833D01*
X3198492Y1382807D01*
X3188518Y1390992D01*
X3177139Y1397074D01*
X3164792Y1400820D01*
X3151952Y1402084D01*
D02*
G37*
G36*
X2997121D02*
X2984280Y1400820D01*
X2971934Y1397074D01*
X2960555Y1390992D01*
X2950581Y1382807D01*
X2942396Y1372833D01*
X2936314Y1361454D01*
X2932568Y1349108D01*
X2931304Y1336267D01*
X2932568Y1323427D01*
X2936314Y1311080D01*
X2942396Y1299701D01*
X2950581Y1289728D01*
X2960555Y1281543D01*
X2971934Y1275460D01*
X2984280Y1271715D01*
X2997121Y1270450D01*
X3009961Y1271715D01*
X3022308Y1275460D01*
X3033687Y1281543D01*
X3043660Y1289728D01*
X3051845Y1299701D01*
X3057928Y1311080D01*
X3061673Y1323427D01*
X3062938Y1336267D01*
X3061673Y1349108D01*
X3057928Y1361454D01*
X3051845Y1372833D01*
X3043660Y1382807D01*
X3033687Y1390992D01*
X3022308Y1397074D01*
X3009961Y1400820D01*
X2997121Y1402084D01*
D02*
G37*
G36*
X2839428D02*
X2826588Y1400820D01*
X2814241Y1397074D01*
X2802863Y1390992D01*
X2792889Y1382807D01*
X2784704Y1372833D01*
X2778622Y1361454D01*
X2774876Y1349108D01*
X2773611Y1336267D01*
X2774876Y1323427D01*
X2778622Y1311080D01*
X2784704Y1299701D01*
X2792889Y1289728D01*
X2802863Y1281543D01*
X2814241Y1275460D01*
X2826588Y1271715D01*
X2839428Y1270450D01*
X2852269Y1271715D01*
X2864615Y1275460D01*
X2875994Y1281543D01*
X2885968Y1289728D01*
X2894153Y1299701D01*
X2900235Y1311080D01*
X2903981Y1323427D01*
X2905245Y1336267D01*
X2903981Y1349108D01*
X2900235Y1361454D01*
X2894153Y1372833D01*
X2885968Y1382807D01*
X2875994Y1390992D01*
X2864615Y1397074D01*
X2852269Y1400820D01*
X2839428Y1402084D01*
D02*
G37*
G36*
X1930000Y1375056D02*
X1918361Y1373910D01*
X1907170Y1370515D01*
X1896856Y1365002D01*
X1887816Y1357583D01*
X1880397Y1348543D01*
X1874884Y1338229D01*
X1871489Y1327038D01*
X1870343Y1315399D01*
X1871489Y1303761D01*
X1874884Y1292569D01*
X1880397Y1282255D01*
X1887816Y1273215D01*
X1896856Y1265796D01*
X1907170Y1260283D01*
X1918361Y1256888D01*
X1930000Y1255742D01*
X1941639Y1256888D01*
X1952830Y1260283D01*
X1963144Y1265796D01*
X1972184Y1273215D01*
X1979603Y1282255D01*
X1985116Y1292569D01*
X1988511Y1303761D01*
X1989657Y1315399D01*
X1988511Y1327038D01*
X1985116Y1338229D01*
X1979603Y1348543D01*
X1972184Y1357583D01*
X1963144Y1365002D01*
X1952830Y1370515D01*
X1941639Y1373910D01*
X1930000Y1375056D01*
D02*
G37*
G36*
X1047500Y1266470D02*
Y1225776D01*
X1088194D01*
X1087971Y1227470D01*
X1082492Y1240696D01*
X1073777Y1252054D01*
X1062420Y1260769D01*
X1049193Y1266247D01*
X1047500Y1266470D01*
D02*
G37*
G36*
X1022500Y1266470D02*
X1020807Y1266247D01*
X1007580Y1260769D01*
X996223Y1252054D01*
X987508Y1240696D01*
X982029Y1227470D01*
X981806Y1225776D01*
X1022500D01*
Y1266470D01*
D02*
G37*
G36*
X625000Y1314657D02*
X613361Y1313511D01*
X602170Y1310116D01*
X591856Y1304603D01*
X582816Y1297184D01*
X575397Y1288144D01*
X569884Y1277830D01*
X566489Y1266639D01*
X565343Y1255000D01*
X566489Y1243361D01*
X569884Y1232170D01*
X575397Y1221856D01*
X582816Y1212816D01*
X591856Y1205397D01*
X602170Y1199884D01*
X613361Y1196489D01*
X625000Y1195343D01*
X636639Y1196489D01*
X647830Y1199884D01*
X658144Y1205397D01*
X667184Y1212816D01*
X674603Y1221856D01*
X680116Y1232170D01*
X683511Y1243361D01*
X684657Y1255000D01*
X683511Y1266639D01*
X680116Y1277830D01*
X674603Y1288144D01*
X667184Y1297184D01*
X658144Y1304603D01*
X647830Y1310116D01*
X636639Y1313511D01*
X625000Y1314657D01*
D02*
G37*
G36*
X1829500Y2119500D02*
X1720500D01*
Y2010500D01*
Y1910500D01*
Y1810500D01*
Y1710500D01*
Y1610500D01*
Y1510500D01*
Y1410500D01*
Y1310500D01*
Y1210500D01*
X1725500D01*
Y1177500D01*
X1824500D01*
Y1210500D01*
X1829500D01*
Y1310500D01*
Y1410500D01*
Y1510500D01*
Y1610500D01*
Y1710500D01*
Y1810500D01*
Y1910500D01*
Y2010500D01*
Y2119500D01*
D02*
G37*
G36*
X1022500Y1200776D02*
X981807D01*
X982029Y1199083D01*
X987508Y1185857D01*
X996223Y1174499D01*
X1007580Y1165784D01*
X1020807Y1160306D01*
X1022500Y1160083D01*
Y1200776D01*
D02*
G37*
G36*
X1088194D02*
X1047500D01*
Y1160083D01*
X1049193Y1160306D01*
X1062420Y1165784D01*
X1073777Y1174499D01*
X1082492Y1185857D01*
X1087971Y1199083D01*
X1088194Y1200776D01*
D02*
G37*
G36*
X1942500Y1168593D02*
Y1127899D01*
X1983194D01*
X1982971Y1129592D01*
X1977492Y1142819D01*
X1968777Y1154176D01*
X1957420Y1162891D01*
X1944193Y1168370D01*
X1942500Y1168593D01*
D02*
G37*
G36*
X1917500Y1168593D02*
X1915807Y1168370D01*
X1902580Y1162891D01*
X1891223Y1154176D01*
X1882508Y1142819D01*
X1877029Y1129592D01*
X1876806Y1127899D01*
X1917500D01*
Y1168593D01*
D02*
G37*
G36*
Y1102899D02*
X1876806D01*
X1877029Y1101206D01*
X1882508Y1087979D01*
X1891223Y1076622D01*
X1902580Y1067907D01*
X1915807Y1062428D01*
X1917500Y1062206D01*
Y1102899D01*
D02*
G37*
G36*
X1983194D02*
X1942500D01*
Y1062206D01*
X1944193Y1062428D01*
X1957420Y1067907D01*
X1968777Y1076622D01*
X1977492Y1087979D01*
X1982971Y1101206D01*
X1983194Y1102899D01*
D02*
G37*
G36*
X475500Y1104430D02*
Y1057500D01*
X522431D01*
X519165Y1068264D01*
X513547Y1078775D01*
X505987Y1087987D01*
X496775Y1095547D01*
X486264Y1101165D01*
X475500Y1104430D01*
D02*
G37*
G36*
X450500D02*
X439736Y1101165D01*
X429225Y1095547D01*
X420013Y1087987D01*
X412453Y1078775D01*
X406835Y1068264D01*
X403570Y1057500D01*
X450500D01*
Y1104430D01*
D02*
G37*
G36*
X522431Y1032500D02*
X475500D01*
Y985569D01*
X486264Y988835D01*
X496775Y994453D01*
X505987Y1002013D01*
X513547Y1011225D01*
X519165Y1021736D01*
X522431Y1032500D01*
D02*
G37*
G36*
X450500D02*
X403570D01*
X406835Y1021736D01*
X412453Y1011225D01*
X420013Y1002013D01*
X429225Y994453D01*
X439736Y988835D01*
X450500Y985569D01*
Y1032500D01*
D02*
G37*
G36*
X825000Y1314657D02*
X813361Y1313511D01*
X802170Y1310116D01*
X791856Y1304603D01*
X782816Y1297184D01*
X775397Y1288144D01*
X769884Y1277830D01*
X766489Y1266639D01*
X765343Y1255000D01*
X766489Y1243361D01*
X769884Y1232170D01*
X775397Y1221856D01*
X782816Y1212816D01*
X784973Y1211046D01*
Y1095243D01*
X780460Y1091540D01*
X772275Y1081566D01*
X766193Y1070187D01*
X762448Y1057840D01*
X761183Y1045000D01*
X762448Y1032160D01*
X766193Y1019813D01*
X772275Y1008434D01*
X780460Y998460D01*
X790434Y990275D01*
X801813Y984193D01*
X814160Y980448D01*
X827000Y979183D01*
X839840Y980448D01*
X852187Y984193D01*
X863566Y990275D01*
X873540Y998460D01*
X881725Y1008434D01*
X887807Y1019813D01*
X891552Y1032160D01*
X892817Y1045000D01*
X891552Y1057840D01*
X887807Y1070187D01*
X881725Y1081566D01*
X873540Y1091540D01*
X865027Y1098525D01*
Y1211046D01*
X867184Y1212816D01*
X874603Y1221856D01*
X880116Y1232170D01*
X883511Y1243361D01*
X884657Y1255000D01*
X883511Y1266639D01*
X880116Y1277830D01*
X874603Y1288144D01*
X867184Y1297184D01*
X858144Y1304603D01*
X847830Y1310116D01*
X836639Y1313511D01*
X825000Y1314657D01*
D02*
G37*
G36*
X1229500Y2119500D02*
X1120500D01*
Y2010500D01*
Y1910500D01*
Y1810500D01*
Y1710500D01*
Y1610500D01*
Y1510500D01*
Y1410500D01*
Y1310500D01*
Y1210500D01*
Y1110500D01*
Y1010500D01*
X1125500D01*
Y977500D01*
X1224500D01*
Y1010500D01*
X1229500D01*
Y1110500D01*
Y1210500D01*
Y1310500D01*
Y1410500D01*
Y1510500D01*
Y1610500D01*
Y1710500D01*
Y1810500D01*
Y1910500D01*
Y2010500D01*
Y2119500D01*
D02*
G37*
G36*
X1035000Y1072934D02*
X1023361Y1071787D01*
X1012170Y1068393D01*
X1001856Y1062880D01*
X992816Y1055461D01*
X985397Y1046420D01*
X979884Y1036106D01*
X976489Y1024915D01*
X975343Y1013277D01*
X976489Y1001638D01*
X979884Y990447D01*
X985397Y980133D01*
X992816Y971092D01*
X1001856Y963673D01*
X1012170Y958160D01*
X1023361Y954765D01*
X1035000Y953619D01*
X1046639Y954765D01*
X1057830Y958160D01*
X1068144Y963673D01*
X1077184Y971092D01*
X1084603Y980133D01*
X1090116Y990447D01*
X1093511Y1001638D01*
X1094657Y1013277D01*
X1093511Y1024915D01*
X1090116Y1036106D01*
X1084603Y1046420D01*
X1077184Y1055461D01*
X1068144Y1062880D01*
X1057830Y1068393D01*
X1046639Y1071787D01*
X1035000Y1072934D01*
D02*
G37*
G36*
X3151952Y1038084D02*
X3139112Y1036820D01*
X3126765Y1033074D01*
X3115386Y1026992D01*
X3105412Y1018807D01*
X3097227Y1008833D01*
X3091145Y997454D01*
X3087400Y985107D01*
X3086135Y972267D01*
X3087400Y959427D01*
X3091145Y947080D01*
X3097227Y935701D01*
X3105412Y925728D01*
X3115386Y917543D01*
X3126765Y911460D01*
X3139112Y907715D01*
X3151952Y906450D01*
X3164792Y907715D01*
X3177139Y911460D01*
X3188518Y917543D01*
X3198492Y925728D01*
X3206677Y935701D01*
X3212759Y947080D01*
X3216504Y959427D01*
X3217769Y972267D01*
X3216504Y985107D01*
X3212759Y997454D01*
X3206677Y1008833D01*
X3198492Y1018807D01*
X3188518Y1026992D01*
X3177139Y1033074D01*
X3164792Y1036820D01*
X3151952Y1038084D01*
D02*
G37*
G36*
X2997121D02*
X2984280Y1036820D01*
X2971934Y1033074D01*
X2960555Y1026992D01*
X2950581Y1018807D01*
X2942396Y1008833D01*
X2936314Y997454D01*
X2932568Y985107D01*
X2931304Y972267D01*
X2932568Y959427D01*
X2936314Y947080D01*
X2942396Y935701D01*
X2950581Y925728D01*
X2960555Y917543D01*
X2971934Y911460D01*
X2984280Y907715D01*
X2997121Y906450D01*
X3009961Y907715D01*
X3022308Y911460D01*
X3033687Y917543D01*
X3043660Y925728D01*
X3051845Y935701D01*
X3057928Y947080D01*
X3061673Y959427D01*
X3062938Y972267D01*
X3061673Y985107D01*
X3057928Y997454D01*
X3051845Y1008833D01*
X3043660Y1018807D01*
X3033687Y1026992D01*
X3022308Y1033074D01*
X3009961Y1036820D01*
X2997121Y1038084D01*
D02*
G37*
G36*
X2839428D02*
X2826588Y1036820D01*
X2814241Y1033074D01*
X2802863Y1026992D01*
X2792889Y1018807D01*
X2784704Y1008833D01*
X2778622Y997454D01*
X2774876Y985107D01*
X2773611Y972267D01*
X2774876Y959427D01*
X2778622Y947080D01*
X2784704Y935701D01*
X2792889Y925728D01*
X2802863Y917543D01*
X2814241Y911460D01*
X2826588Y907715D01*
X2839428Y906450D01*
X2852269Y907715D01*
X2864615Y911460D01*
X2875994Y917543D01*
X2885968Y925728D01*
X2894153Y935701D01*
X2900235Y947080D01*
X2903981Y959427D01*
X2905245Y972267D01*
X2903981Y985107D01*
X2900235Y997454D01*
X2894153Y1008833D01*
X2885968Y1018807D01*
X2875994Y1026992D01*
X2864615Y1033074D01*
X2852269Y1036820D01*
X2839428Y1038084D01*
D02*
G37*
G36*
X3210130Y857935D02*
X3195146Y855963D01*
X3181182Y850179D01*
X3169192Y840978D01*
X3162630Y832427D01*
X3157630D01*
X3151068Y840978D01*
X3139078Y850179D01*
X3125114Y855963D01*
X3110130Y857935D01*
X3095146Y855963D01*
X3081182Y850179D01*
X3069192Y840978D01*
X3062630Y832427D01*
X3057630D01*
X3051068Y840978D01*
X3039078Y850179D01*
X3025114Y855963D01*
X3010130Y857935D01*
X2995146Y855963D01*
X2981182Y850179D01*
X2969192Y840978D01*
X2962565Y832342D01*
X2957565D01*
X2950938Y840978D01*
X2938948Y850179D01*
X2924984Y855963D01*
X2910000Y857935D01*
X2895016Y855963D01*
X2881052Y850179D01*
X2869062Y840978D01*
X2862550Y832491D01*
X2857550D01*
X2851068Y840938D01*
X2839078Y850139D01*
X2825114Y855923D01*
X2810130Y857895D01*
X2795146Y855923D01*
X2781182Y850139D01*
X2769192Y840938D01*
X2762565Y832302D01*
X2757565D01*
X2750938Y840938D01*
X2738948Y850139D01*
X2724984Y855923D01*
X2710000Y857895D01*
X2695016Y855923D01*
X2681052Y850139D01*
X2669062Y840938D01*
X2662580Y832491D01*
X2657580D01*
X2651068Y840978D01*
X2639078Y850179D01*
X2625114Y855963D01*
X2610130Y857935D01*
X2595146Y855963D01*
X2581182Y850179D01*
X2569192Y840978D01*
X2559991Y828988D01*
X2554207Y815024D01*
X2552235Y800040D01*
X2554207Y785056D01*
X2559991Y771092D01*
X2569192Y759102D01*
X2581182Y749901D01*
X2595146Y744117D01*
X2610130Y742145D01*
X2625114Y744117D01*
X2639078Y749901D01*
X2651068Y759102D01*
X2657550Y767549D01*
X2662550D01*
X2669062Y759062D01*
X2681052Y749861D01*
X2695016Y744077D01*
X2710000Y742105D01*
X2724984Y744077D01*
X2738948Y749861D01*
X2750938Y759062D01*
X2757565Y767698D01*
X2762565D01*
X2769192Y759062D01*
X2781182Y749861D01*
X2795146Y744077D01*
X2810130Y742105D01*
X2825114Y744077D01*
X2839078Y749861D01*
X2851068Y759062D01*
X2857580Y767549D01*
X2862580D01*
X2869062Y759102D01*
X2881052Y749901D01*
X2895016Y744117D01*
X2910000Y742145D01*
X2924984Y744117D01*
X2938948Y749901D01*
X2950938Y759102D01*
X2957565Y767738D01*
X2962565D01*
X2969192Y759102D01*
X2981182Y749901D01*
X2995146Y744117D01*
X3010130Y742145D01*
X3025114Y744117D01*
X3039078Y749901D01*
X3051068Y759102D01*
X3057630Y767653D01*
X3062630D01*
X3069192Y759102D01*
X3081182Y749901D01*
X3095146Y744117D01*
X3110130Y742145D01*
X3125114Y744117D01*
X3139078Y749901D01*
X3151068Y759102D01*
X3157630Y767653D01*
X3162630D01*
X3169192Y759102D01*
X3181182Y749901D01*
X3195146Y744117D01*
X3210130Y742145D01*
X3225114Y744117D01*
X3239078Y749901D01*
X3251068Y759102D01*
X3257550Y767549D01*
X3262550D01*
X3269062Y759062D01*
X3281052Y749861D01*
X3295016Y744077D01*
X3310000Y742105D01*
X3324984Y744077D01*
X3338948Y749861D01*
X3350938Y759062D01*
X3357565Y767698D01*
X3362565D01*
X3369192Y759062D01*
X3381182Y749861D01*
X3395146Y744077D01*
X3410130Y742105D01*
X3425114Y744077D01*
X3439078Y749861D01*
X3451068Y759062D01*
X3460269Y771052D01*
X3466053Y785016D01*
X3468025Y800000D01*
X3466053Y814984D01*
X3460269Y828948D01*
X3451068Y840938D01*
X3439078Y850139D01*
X3425114Y855923D01*
X3410130Y857895D01*
X3395146Y855923D01*
X3381182Y850139D01*
X3369192Y840938D01*
X3362565Y832302D01*
X3357565D01*
X3350938Y840938D01*
X3338948Y850139D01*
X3324984Y855923D01*
X3310000Y857895D01*
X3295016Y855923D01*
X3281052Y850139D01*
X3269062Y840938D01*
X3262580Y832491D01*
X3257580D01*
X3251068Y840978D01*
X3239078Y850179D01*
X3225114Y855963D01*
X3210130Y857935D01*
D02*
G37*
G36*
X765000Y926626D02*
X753361Y925479D01*
X742170Y922085D01*
X731856Y916572D01*
X722816Y909153D01*
X715397Y900112D01*
X709884Y889798D01*
X706489Y878607D01*
X705343Y866968D01*
X706489Y855330D01*
X709884Y844139D01*
X715397Y833825D01*
X722816Y824784D01*
X731856Y817365D01*
X742170Y811852D01*
X753361Y808457D01*
X765000Y807311D01*
X776639Y808457D01*
X787830Y811852D01*
X798144Y817365D01*
X807184Y824784D01*
X814603Y833825D01*
X820116Y844139D01*
X823511Y855330D01*
X824657Y866968D01*
X823511Y878607D01*
X820116Y889798D01*
X814603Y900112D01*
X807184Y909153D01*
X798144Y916572D01*
X787830Y922085D01*
X776639Y925479D01*
X765000Y926626D01*
D02*
G37*
G36*
X1025000Y925681D02*
X1013361Y924534D01*
X1002170Y921140D01*
X991856Y915627D01*
X982816Y908208D01*
X975397Y899167D01*
X969884Y888853D01*
X966489Y877662D01*
X965343Y866024D01*
X966489Y854385D01*
X969884Y843194D01*
X975397Y832880D01*
X982816Y823839D01*
X991856Y816420D01*
X1002170Y810907D01*
X1013361Y807513D01*
X1013365Y807512D01*
Y802488D01*
X1013361Y802487D01*
X1002170Y799093D01*
X991856Y793580D01*
X982816Y786161D01*
X975397Y777120D01*
X969884Y766806D01*
X966489Y755615D01*
X965343Y743976D01*
X966489Y732338D01*
X969884Y721147D01*
X975397Y710833D01*
X982816Y701792D01*
X991856Y694373D01*
X1002170Y688860D01*
X1013361Y685466D01*
X1025000Y684319D01*
X1036639Y685466D01*
X1047830Y688860D01*
X1058144Y694373D01*
X1067184Y701792D01*
X1074603Y710833D01*
X1080116Y721147D01*
X1083511Y732338D01*
X1084657Y743976D01*
X1083511Y755615D01*
X1080116Y766806D01*
X1074603Y777120D01*
X1067184Y786161D01*
X1058144Y793580D01*
X1047830Y799093D01*
X1036639Y802487D01*
X1036635Y802488D01*
Y807512D01*
X1036639Y807513D01*
X1047830Y810907D01*
X1058144Y816420D01*
X1067184Y823839D01*
X1074603Y832880D01*
X1080116Y843194D01*
X1083511Y854385D01*
X1084657Y866024D01*
X1083511Y877662D01*
X1080116Y888853D01*
X1074603Y899167D01*
X1067184Y908208D01*
X1058144Y915627D01*
X1047830Y921140D01*
X1036639Y924534D01*
X1025000Y925681D01*
D02*
G37*
G36*
X777500Y720162D02*
Y679468D01*
X818193D01*
X817971Y681162D01*
X812492Y694388D01*
X803777Y705746D01*
X792420Y714461D01*
X779193Y719939D01*
X777500Y720162D01*
D02*
G37*
G36*
X752500D02*
X750807Y719939D01*
X737580Y714461D01*
X726223Y705746D01*
X717508Y694388D01*
X712029Y681162D01*
X711807Y679468D01*
X752500D01*
Y720162D01*
D02*
G37*
G36*
X2392000Y755817D02*
X2379160Y754552D01*
X2366813Y750807D01*
X2355434Y744725D01*
X2345460Y736540D01*
X2337275Y726566D01*
X2331193Y715187D01*
X2327448Y702840D01*
X2326183Y690000D01*
X2327448Y677160D01*
X2331193Y664813D01*
X2337275Y653434D01*
X2345460Y643460D01*
X2355434Y635275D01*
X2366813Y629193D01*
X2379160Y625448D01*
X2392000Y624183D01*
X2404840Y625448D01*
X2417187Y629193D01*
X2428566Y635275D01*
X2438540Y643460D01*
X2446725Y653434D01*
X2452807Y664813D01*
X2456552Y677160D01*
X2457817Y690000D01*
X2456552Y702840D01*
X2452807Y715187D01*
X2446725Y726566D01*
X2438540Y736540D01*
X2428566Y744725D01*
X2417187Y750807D01*
X2404840Y754552D01*
X2392000Y755817D01*
D02*
G37*
G36*
X2028000D02*
X2015160Y754552D01*
X2002813Y750807D01*
X1991434Y744725D01*
X1981460Y736540D01*
X1973275Y726566D01*
X1967193Y715187D01*
X1963448Y702840D01*
X1962183Y690000D01*
X1963448Y677160D01*
X1967193Y664813D01*
X1973275Y653434D01*
X1981460Y643460D01*
X1991434Y635275D01*
X2002813Y629193D01*
X2015160Y625448D01*
X2028000Y624183D01*
X2040840Y625448D01*
X2053187Y629193D01*
X2064566Y635275D01*
X2074540Y643460D01*
X2082725Y653434D01*
X2088807Y664813D01*
X2092552Y677160D01*
X2093817Y690000D01*
X2092552Y702840D01*
X2088807Y715187D01*
X2082725Y726566D01*
X2074540Y736540D01*
X2064566Y744725D01*
X2053187Y750807D01*
X2040840Y754552D01*
X2028000Y755817D01*
D02*
G37*
G36*
X818193Y654468D02*
X777500D01*
Y613775D01*
X779193Y613998D01*
X792420Y619476D01*
X803777Y628191D01*
X812492Y639549D01*
X817971Y652775D01*
X818193Y654468D01*
D02*
G37*
G36*
X752500D02*
X711807D01*
X712029Y652775D01*
X717508Y639549D01*
X726223Y628191D01*
X737580Y619476D01*
X750807Y613998D01*
X752500Y613775D01*
Y654468D01*
D02*
G37*
G36*
X1025000Y654657D02*
X1013361Y653511D01*
X1002170Y650116D01*
X991856Y644603D01*
X982816Y637184D01*
X975397Y628144D01*
X969884Y617830D01*
X966489Y606639D01*
X965343Y595000D01*
X966489Y583361D01*
X969884Y572170D01*
X975397Y561856D01*
X982816Y552816D01*
X991856Y545397D01*
X1002170Y539884D01*
X1013361Y536489D01*
X1025000Y535343D01*
X1036639Y536489D01*
X1047830Y539884D01*
X1058144Y545397D01*
X1067184Y552816D01*
X1074603Y561856D01*
X1080116Y572170D01*
X1083511Y583361D01*
X1084657Y595000D01*
X1083511Y606639D01*
X1080116Y617830D01*
X1074603Y628144D01*
X1067184Y637184D01*
X1058144Y644603D01*
X1047830Y650116D01*
X1036639Y653511D01*
X1025000Y654657D01*
D02*
G37*
G36*
X2387733Y554861D02*
X2374892Y553596D01*
X2362546Y549851D01*
X2351167Y543769D01*
X2341193Y535583D01*
X2333008Y525610D01*
X2326926Y514231D01*
X2323180Y501884D01*
X2321916Y489044D01*
X2323180Y476204D01*
X2326926Y463857D01*
X2333008Y452478D01*
X2341193Y442504D01*
X2351167Y434319D01*
X2362546Y428237D01*
X2374892Y424492D01*
X2387733Y423227D01*
X2400573Y424492D01*
X2412920Y428237D01*
X2424299Y434319D01*
X2434272Y442504D01*
X2442457Y452478D01*
X2448540Y463857D01*
X2452285Y476204D01*
X2453550Y489044D01*
X2452285Y501884D01*
X2448540Y514231D01*
X2442457Y525610D01*
X2434272Y535583D01*
X2424299Y543769D01*
X2412920Y549851D01*
X2400573Y553596D01*
X2387733Y554861D01*
D02*
G37*
G36*
X2023733D02*
X2010892Y553596D01*
X1998546Y549851D01*
X1987167Y543769D01*
X1977193Y535583D01*
X1969008Y525610D01*
X1962926Y514231D01*
X1959180Y501884D01*
X1957916Y489044D01*
X1959180Y476204D01*
X1962926Y463857D01*
X1969008Y452478D01*
X1977193Y442504D01*
X1987167Y434319D01*
X1998546Y428237D01*
X2010892Y424492D01*
X2023733Y423227D01*
X2036573Y424492D01*
X2048920Y428237D01*
X2060299Y434319D01*
X2070272Y442504D01*
X2078457Y452478D01*
X2084540Y463857D01*
X2088285Y476204D01*
X2089550Y489044D01*
X2088285Y501884D01*
X2084540Y514231D01*
X2078457Y525610D01*
X2070272Y535583D01*
X2060299Y543769D01*
X2048920Y549851D01*
X2036573Y553596D01*
X2023733Y554861D01*
D02*
G37*
G36*
X1037500Y448193D02*
Y407500D01*
X1078194D01*
X1077971Y409193D01*
X1072492Y422420D01*
X1063777Y433777D01*
X1052420Y442492D01*
X1039193Y447971D01*
X1037500Y448193D01*
D02*
G37*
G36*
X1012500D02*
X1010807Y447971D01*
X997580Y442492D01*
X986223Y433777D01*
X977508Y422420D01*
X972029Y409193D01*
X971807Y407500D01*
X1012500D01*
Y448193D01*
D02*
G37*
G36*
X1078194Y382500D02*
X1037500D01*
Y341807D01*
X1039193Y342029D01*
X1052420Y347508D01*
X1063777Y356223D01*
X1072492Y367580D01*
X1077971Y380807D01*
X1078194Y382500D01*
D02*
G37*
G36*
X1012500D02*
X971807D01*
X972029Y380807D01*
X977508Y367580D01*
X986223Y356223D01*
X997580Y347508D01*
X1010807Y342029D01*
X1012500Y341807D01*
Y382500D01*
D02*
G37*
G36*
X3310130Y357934D02*
X3295146Y355962D01*
X3281182Y350178D01*
X3269192Y340977D01*
X3262630Y332426D01*
X3257630D01*
X3251068Y340977D01*
X3239078Y350178D01*
X3225114Y355962D01*
X3210130Y357934D01*
X3195146Y355962D01*
X3181182Y350178D01*
X3169192Y340977D01*
X3162615Y332406D01*
X3157615D01*
X3151068Y340938D01*
X3139078Y350139D01*
X3125114Y355923D01*
X3110130Y357895D01*
X3095146Y355923D01*
X3081182Y350139D01*
X3069192Y340938D01*
X3062645Y332406D01*
X3057645D01*
X3051068Y340977D01*
X3039078Y350178D01*
X3025114Y355962D01*
X3010130Y357934D01*
X2995146Y355962D01*
X2981182Y350178D01*
X2969192Y340977D01*
X2962630Y332426D01*
X2957630D01*
X2951068Y340977D01*
X2939078Y350178D01*
X2925114Y355962D01*
X2910130Y357934D01*
X2895146Y355962D01*
X2881182Y350178D01*
X2869192Y340977D01*
X2862630Y332426D01*
X2857630D01*
X2851068Y340977D01*
X2839078Y350178D01*
X2825114Y355962D01*
X2810130Y357934D01*
X2795146Y355962D01*
X2781182Y350178D01*
X2769192Y340977D01*
X2762565Y332341D01*
X2757565D01*
X2750938Y340977D01*
X2738948Y350178D01*
X2724984Y355962D01*
X2710000Y357934D01*
X2695016Y355962D01*
X2681052Y350178D01*
X2669062Y340977D01*
X2662500Y332426D01*
X2657500D01*
X2650938Y340977D01*
X2638948Y350178D01*
X2624984Y355962D01*
X2610000Y357934D01*
X2595016Y355962D01*
X2581052Y350178D01*
X2569062Y340977D01*
X2559861Y328987D01*
X2554077Y315023D01*
X2552105Y300039D01*
X2554077Y285055D01*
X2559861Y271091D01*
X2569062Y259101D01*
X2581052Y249900D01*
X2595016Y244116D01*
X2610000Y242144D01*
X2624984Y244116D01*
X2638948Y249900D01*
X2650938Y259101D01*
X2657500Y267652D01*
X2662500D01*
X2669062Y259101D01*
X2681052Y249900D01*
X2695016Y244116D01*
X2710000Y242144D01*
X2724984Y244116D01*
X2738948Y249900D01*
X2750938Y259101D01*
X2757565Y267737D01*
X2762565D01*
X2769192Y259101D01*
X2781182Y249900D01*
X2795146Y244116D01*
X2810130Y242144D01*
X2825114Y244116D01*
X2839078Y249900D01*
X2851068Y259101D01*
X2857630Y267652D01*
X2862630D01*
X2869192Y259101D01*
X2881182Y249900D01*
X2895146Y244116D01*
X2910130Y242144D01*
X2925114Y244116D01*
X2939078Y249900D01*
X2951068Y259101D01*
X2957630Y267652D01*
X2962630D01*
X2969192Y259101D01*
X2981182Y249900D01*
X2995146Y244116D01*
X3010130Y242144D01*
X3025114Y244116D01*
X3039078Y249900D01*
X3051068Y259101D01*
X3057615Y267633D01*
X3062615D01*
X3069192Y259062D01*
X3081182Y249861D01*
X3095146Y244077D01*
X3110130Y242105D01*
X3125114Y244077D01*
X3139078Y249861D01*
X3151068Y259062D01*
X3157645Y267633D01*
X3162645D01*
X3169192Y259101D01*
X3181182Y249900D01*
X3195146Y244116D01*
X3210130Y242144D01*
X3225114Y244116D01*
X3239078Y249900D01*
X3251068Y259101D01*
X3257630Y267652D01*
X3262630D01*
X3269192Y259101D01*
X3281182Y249900D01*
X3295146Y244116D01*
X3310130Y242144D01*
X3325114Y244116D01*
X3339078Y249900D01*
X3351068Y259101D01*
X3357550Y267548D01*
X3362550D01*
X3369062Y259062D01*
X3381052Y249861D01*
X3395016Y244077D01*
X3410000Y242105D01*
X3424984Y244077D01*
X3438948Y249861D01*
X3450938Y259062D01*
X3460139Y271052D01*
X3465923Y285016D01*
X3467895Y300000D01*
X3465923Y314984D01*
X3460139Y328948D01*
X3450938Y340938D01*
X3438948Y350139D01*
X3424984Y355923D01*
X3410000Y357895D01*
X3395016Y355923D01*
X3381052Y350139D01*
X3369062Y340938D01*
X3362580Y332491D01*
X3357580D01*
X3351068Y340977D01*
X3339078Y350178D01*
X3325114Y355962D01*
X3310130Y357934D01*
D02*
G37*
G36*
X2387733Y397168D02*
X2374892Y395904D01*
X2362546Y392158D01*
X2351167Y386076D01*
X2341193Y377891D01*
X2333008Y367917D01*
X2326926Y356538D01*
X2323180Y344192D01*
X2321916Y331351D01*
X2323180Y318511D01*
X2326926Y306164D01*
X2333008Y294786D01*
X2341193Y284812D01*
X2351167Y276627D01*
X2362546Y270545D01*
X2374892Y266799D01*
X2387733Y265535D01*
X2400573Y266799D01*
X2412920Y270545D01*
X2424299Y276627D01*
X2434272Y284812D01*
X2442457Y294786D01*
X2448540Y306164D01*
X2452285Y318511D01*
X2453550Y331351D01*
X2452285Y344192D01*
X2448540Y356538D01*
X2442457Y367917D01*
X2434272Y377891D01*
X2424299Y386076D01*
X2412920Y392158D01*
X2400573Y395904D01*
X2387733Y397168D01*
D02*
G37*
G36*
X2023733D02*
X2010892Y395904D01*
X1998546Y392158D01*
X1987167Y386076D01*
X1977193Y377891D01*
X1969008Y367917D01*
X1962926Y356538D01*
X1959180Y344192D01*
X1957916Y331351D01*
X1959180Y318511D01*
X1962926Y306164D01*
X1969008Y294786D01*
X1977193Y284812D01*
X1987167Y276627D01*
X1998546Y270545D01*
X2010892Y266799D01*
X2023733Y265535D01*
X2036573Y266799D01*
X2048920Y270545D01*
X2060299Y276627D01*
X2070272Y284812D01*
X2078457Y294786D01*
X2084540Y306164D01*
X2088285Y318511D01*
X2089550Y331351D01*
X2088285Y344192D01*
X2084540Y356538D01*
X2078457Y367917D01*
X2070272Y377891D01*
X2060299Y386076D01*
X2048920Y392158D01*
X2036573Y395904D01*
X2023733Y397168D01*
D02*
G37*
G36*
X1824500Y1152500D02*
X1725500D01*
Y1119500D01*
X1720500D01*
Y1010500D01*
Y910500D01*
Y810500D01*
Y710500D01*
Y610500D01*
Y510500D01*
Y410500D01*
Y310500D01*
Y210500D01*
Y110500D01*
X1829500D01*
Y210500D01*
Y310500D01*
Y410500D01*
Y510500D01*
Y610500D01*
Y710500D01*
Y810500D01*
Y910500D01*
Y1010500D01*
Y1119500D01*
X1824500D01*
Y1152500D01*
D02*
G37*
G36*
X1224500Y952500D02*
X1125500D01*
Y919500D01*
X1120500D01*
Y810500D01*
Y710500D01*
Y610500D01*
Y510500D01*
Y410500D01*
Y310500D01*
Y210500D01*
Y110500D01*
X1229500D01*
Y210500D01*
Y310500D01*
Y410500D01*
Y510500D01*
Y610500D01*
Y710500D01*
Y810500D01*
Y919500D01*
X1224500D01*
Y952500D01*
D02*
G37*
G36*
X2387733Y239476D02*
X2374892Y238211D01*
X2362546Y234466D01*
X2351167Y228384D01*
X2341193Y220199D01*
X2333008Y210225D01*
X2326926Y198846D01*
X2323180Y186499D01*
X2321916Y173659D01*
X2323180Y160819D01*
X2326926Y148472D01*
X2333008Y137093D01*
X2341193Y127120D01*
X2351167Y118934D01*
X2362546Y112852D01*
X2374892Y109107D01*
X2387733Y107842D01*
X2400573Y109107D01*
X2412920Y112852D01*
X2424299Y118934D01*
X2434272Y127120D01*
X2442457Y137093D01*
X2448540Y148472D01*
X2452285Y160819D01*
X2453550Y173659D01*
X2452285Y186499D01*
X2448540Y198846D01*
X2442457Y210225D01*
X2434272Y220199D01*
X2424299Y228384D01*
X2412920Y234466D01*
X2400573Y238211D01*
X2387733Y239476D01*
D02*
G37*
G36*
X2023733D02*
X2010892Y238211D01*
X1998546Y234466D01*
X1987167Y228384D01*
X1977193Y220199D01*
X1969008Y210225D01*
X1962926Y198846D01*
X1959180Y186499D01*
X1957916Y173659D01*
X1959180Y160819D01*
X1962926Y148472D01*
X1969008Y137093D01*
X1977193Y127120D01*
X1987167Y118934D01*
X1998546Y112852D01*
X2010892Y109107D01*
X2023733Y107842D01*
X2036573Y109107D01*
X2048920Y112852D01*
X2060299Y118934D01*
X2070272Y127120D01*
X2078457Y137093D01*
X2084540Y148472D01*
X2088285Y160819D01*
X2089550Y173659D01*
X2088285Y186499D01*
X2084540Y198846D01*
X2078457Y210225D01*
X2070272Y220199D01*
X2060299Y228384D01*
X2048920Y234466D01*
X2036573Y238211D01*
X2023733Y239476D01*
D02*
G37*
%LPD*%
D10*
X990000Y2485000D02*
Y2486884D01*
X1135000D01*
X240000Y2015000D02*
X459000D01*
Y2147000D01*
X935000D01*
X957000Y1400000D02*
Y1565000D01*
X1972183Y2802000D02*
X2415000D01*
X1965000Y2575000D02*
X2415000D01*
X1350000Y2260000D02*
X2265000D01*
X1135000D02*
X1350000D01*
X1135000D02*
Y2486884D01*
X825000Y1047000D02*
X827000Y1045000D01*
X825000Y1047000D02*
Y1255000D01*
X957000Y1565000D02*
X960000D01*
D11*
X785000Y2780000D02*
D03*
X685000D02*
D03*
X1035000Y1213276D02*
D03*
Y1013277D02*
D03*
X1025000Y743976D02*
D03*
Y866024D02*
D03*
X1930000Y1115399D02*
D03*
Y1315399D02*
D03*
X845000Y2480000D02*
D03*
X645000D02*
D03*
X315000Y2780000D02*
D03*
Y2580000D02*
D03*
X240000Y1815000D02*
D03*
Y2015000D02*
D03*
X150000Y2780000D02*
D03*
X765000Y666968D02*
D03*
Y866968D02*
D03*
X1025000Y395000D02*
D03*
Y595000D02*
D03*
X1210000Y2780000D02*
D03*
X960000Y1565000D02*
D03*
X625000Y1255000D02*
D03*
X825000D02*
D03*
D12*
X585000Y2780000D02*
D03*
D13*
X902000Y2300000D02*
D03*
X538000D02*
D03*
X3225000Y2438000D02*
D03*
Y2802000D02*
D03*
X3067308Y2438000D02*
D03*
Y2802000D02*
D03*
X2397000Y2130000D02*
D03*
X2033000D02*
D03*
X2402000Y1965000D02*
D03*
X2038000D02*
D03*
X2402000Y1790000D02*
D03*
X2038000D02*
D03*
X2402000Y1646538D02*
D03*
X2038000D02*
D03*
X2402000Y1488846D02*
D03*
X2038000D02*
D03*
X3151952Y972267D02*
D03*
Y1336267D02*
D03*
X935000Y1783000D02*
D03*
Y2147000D02*
D03*
X2997121Y972267D02*
D03*
Y1336267D02*
D03*
X2839428Y972267D02*
D03*
Y1336267D02*
D03*
X2392000Y690000D02*
D03*
X2028000D02*
D03*
X2387733Y489044D02*
D03*
X2023733D02*
D03*
X2387733Y331351D02*
D03*
X2023733D02*
D03*
X2387733Y173659D02*
D03*
X2023733D02*
D03*
X1727000Y2780000D02*
D03*
X1363000D02*
D03*
X593000Y1400000D02*
D03*
X957000D02*
D03*
X463000Y1045000D02*
D03*
X827000D02*
D03*
D14*
X1175000Y2065000D02*
D03*
Y1965000D02*
D03*
Y1865000D02*
D03*
Y1765000D02*
D03*
Y1665000D02*
D03*
Y1565000D02*
D03*
Y1465000D02*
D03*
Y1365000D02*
D03*
Y1265000D02*
D03*
Y1165000D02*
D03*
Y1065000D02*
D03*
Y965000D02*
D03*
Y865000D02*
D03*
Y765000D02*
D03*
Y665000D02*
D03*
Y565000D02*
D03*
Y465000D02*
D03*
Y365000D02*
D03*
Y265000D02*
D03*
Y165000D02*
D03*
X1775000Y2065000D02*
D03*
Y1965000D02*
D03*
Y1865000D02*
D03*
Y1765000D02*
D03*
Y1665000D02*
D03*
Y1565000D02*
D03*
Y1465000D02*
D03*
Y1365000D02*
D03*
Y1265000D02*
D03*
Y1165000D02*
D03*
Y1065000D02*
D03*
Y965000D02*
D03*
Y865000D02*
D03*
Y765000D02*
D03*
Y665000D02*
D03*
Y565000D02*
D03*
Y465000D02*
D03*
Y365000D02*
D03*
Y265000D02*
D03*
Y165000D02*
D03*
D15*
X2610130Y800040D02*
D03*
X2710000Y800000D02*
D03*
X2810130D02*
D03*
X2910000Y800040D02*
D03*
X3010130D02*
D03*
X3110130D02*
D03*
X3210130D02*
D03*
X3310000Y800000D02*
D03*
X3410130D02*
D03*
X3410000Y300000D02*
D03*
X3310130Y300039D02*
D03*
X3210130D02*
D03*
X3110130Y300000D02*
D03*
X3010130Y300039D02*
D03*
X2910130D02*
D03*
X2810130D02*
D03*
X2710000D02*
D03*
X2610000D02*
D03*
X2595000Y2225001D02*
D03*
X2694870Y2224961D02*
D03*
X2795000D02*
D03*
X2894870Y2225001D02*
D03*
X2995000D02*
D03*
X3095000D02*
D03*
X3195000D02*
D03*
X3294870Y2224961D02*
D03*
X3395000D02*
D03*
X3394870Y1724961D02*
D03*
X3295000Y1725000D02*
D03*
X3195000D02*
D03*
X3095000Y1724961D02*
D03*
X2995000Y1725000D02*
D03*
X2895000D02*
D03*
X2795000D02*
D03*
X2694870D02*
D03*
X2594870D02*
D03*
D16*
X150000Y2680000D02*
D03*
D17*
X1650000Y2560000D02*
D03*
Y2460000D02*
D03*
X1550000Y2560000D02*
D03*
Y2460000D02*
D03*
X1450000Y2560000D02*
D03*
Y2460000D02*
D03*
X1350000Y2560000D02*
D03*
Y2460000D02*
D03*
X1250000Y2560000D02*
D03*
D18*
Y2460000D02*
D03*
D19*
X715000Y2010000D02*
D03*
Y1832000D02*
D03*
X459000D02*
D03*
D20*
Y2010000D02*
D03*
D21*
X1010000Y2780000D02*
D03*
X760000Y1565000D02*
D03*
D22*
X1605000Y1165000D02*
D03*
X1300000Y965000D02*
D03*
X990000Y2485000D02*
D03*
X1972183Y2802000D02*
D03*
X2415000D02*
D03*
Y2575000D02*
D03*
X1965000D02*
D03*
X2265000Y2260000D02*
D03*
X1450000Y2015000D02*
D03*
X1350000Y2260000D02*
D03*
%TF.MD5,20e2eaf01d976b80fdeae38301aaaa11*%
M02*
