%TF.GenerationSoftware,Altium Limited,Altium Designer,18.1.7 (191)*%
G04 Layer_Color=65535*
%FSLAX26Y26*%
%MOIN*%
%TF.FileFunction,Legend,Top*%
%TF.Part,Single*%
G01*
G75*
%TA.AperFunction,NonConductor*%
%ADD23C,0.007874*%
%ADD24C,0.009842*%
%ADD25C,0.023622*%
%ADD26C,0.020000*%
%ADD27C,0.025000*%
%ADD28C,0.010000*%
%ADD29C,0.007870*%
%ADD30C,0.005906*%
%ADD31C,0.008000*%
D23*
X1064601Y758570D02*
G03*
X1065242Y850875I-39601J46429D01*
G01*
X984759Y850482D02*
G03*
X985399Y758177I40242J-45875D01*
G01*
X1450000Y2164213D02*
G03*
X1500000Y2164213I25000J0D01*
G01*
X895630Y2679606D02*
Y2868583D01*
X474370Y2679606D02*
Y2868583D01*
Y2679606D02*
X895630D01*
X474370Y2868583D02*
X895630D01*
X474370Y2848898D02*
X895630D01*
X960000Y1288276D02*
X1110000D01*
Y938277D02*
Y1288276D01*
X960000Y938277D02*
X1110000D01*
X960000D02*
Y1288276D01*
X1855000Y1040399D02*
X2005000D01*
X1855000D02*
Y1390399D01*
X2005000D01*
Y1040399D02*
Y1390399D01*
X920000Y2405000D02*
Y2555000D01*
X570000Y2405000D02*
X920000D01*
X570000D02*
Y2555000D01*
X920000D01*
X611000Y2300000D02*
X620000D01*
X820000D02*
X829000D01*
X620000D02*
Y2330000D01*
X820000D01*
Y2270000D02*
Y2330000D01*
X620000Y2270000D02*
X820000D01*
X620000D02*
Y2300000D01*
X240000Y2855000D02*
X390000D01*
Y2505000D02*
Y2855000D01*
X240000Y2505000D02*
X390000D01*
X240000D02*
Y2855000D01*
X1221063Y65787D02*
Y2164213D01*
X1728937Y65787D02*
Y2164213D01*
X1221063D02*
X1450000D01*
X1500000D02*
X1728937D01*
X1221063Y65787D02*
X1728937D01*
X165000Y1740000D02*
X315000D01*
X165000D02*
Y2090000D01*
X315000D01*
Y1740000D02*
Y2090000D01*
X100000Y2830000D02*
X200000D01*
Y2630000D02*
Y2830000D01*
X100000Y2630000D02*
X200000D01*
X100000D02*
Y2830000D01*
X3225000Y2520000D02*
X3255000D01*
Y2720000D01*
X3195000D02*
X3255000D01*
X3195000Y2520000D02*
Y2720000D01*
Y2520000D02*
X3225000D01*
Y2720000D02*
Y2729000D01*
Y2511000D02*
Y2520000D01*
X3067308D02*
X3097308D01*
Y2720000D01*
X3037308D02*
X3097308D01*
X3037308Y2520000D02*
Y2720000D01*
Y2520000D02*
X3067308D01*
Y2720000D02*
Y2729000D01*
Y2511000D02*
Y2520000D01*
X2315000Y2130000D02*
Y2160000D01*
X2115000D02*
X2315000D01*
X2115000Y2100000D02*
Y2160000D01*
Y2100000D02*
X2315000D01*
Y2130000D01*
X2106000D02*
X2115000D01*
X2315000D02*
X2324000D01*
X2320000Y1965000D02*
Y1995000D01*
X2120000D02*
X2320000D01*
X2120000Y1935000D02*
Y1995000D01*
Y1935000D02*
X2320000D01*
Y1965000D01*
X2111000D02*
X2120000D01*
X2320000D02*
X2329000D01*
X2320000Y1790000D02*
Y1820000D01*
X2120000D02*
X2320000D01*
X2120000Y1760000D02*
Y1820000D01*
Y1760000D02*
X2320000D01*
Y1790000D01*
X2111000D02*
X2120000D01*
X2320000D02*
X2329000D01*
X2320000Y1646538D02*
Y1676538D01*
X2120000D02*
X2320000D01*
X2120000Y1616538D02*
Y1676538D01*
Y1616538D02*
X2320000D01*
Y1646538D01*
X2111000D02*
X2120000D01*
X2320000D02*
X2329000D01*
X2320000Y1488846D02*
Y1518846D01*
X2120000D02*
X2320000D01*
X2120000Y1458846D02*
Y1518846D01*
Y1458846D02*
X2320000D01*
Y1488846D01*
X2111000D02*
X2120000D01*
X2320000D02*
X2329000D01*
X1200000Y2410000D02*
X1700000D01*
X1200000Y2610000D02*
X1700000D01*
X1200000Y2410000D02*
Y2610000D01*
X1700000Y2410000D02*
Y2610000D01*
X3151952Y1054267D02*
X3181952D01*
Y1254267D01*
X3121952D02*
X3181952D01*
X3121952Y1054267D02*
Y1254267D01*
Y1054267D02*
X3151952D01*
Y1254267D02*
Y1263267D01*
Y1045267D02*
Y1054267D01*
X935000Y1865000D02*
X965000D01*
Y2065000D01*
X905000D02*
X965000D01*
X905000Y1865000D02*
Y2065000D01*
Y1865000D02*
X935000D01*
Y2065000D02*
Y2074000D01*
Y1856000D02*
Y1865000D01*
X2997121Y1054267D02*
X3027121D01*
Y1254267D01*
X2967121D02*
X3027121D01*
X2967121Y1054267D02*
Y1254267D01*
Y1054267D02*
X2997121D01*
Y1254267D02*
Y1263267D01*
Y1045267D02*
Y1054267D01*
X2839428D02*
X2869428D01*
Y1254267D01*
X2809428D02*
X2869428D01*
X2809428Y1054267D02*
Y1254267D01*
Y1054267D02*
X2839428D01*
Y1254267D02*
Y1263267D01*
Y1045267D02*
Y1054267D01*
X2310000Y690000D02*
Y720000D01*
X2110000D02*
X2310000D01*
X2110000Y660000D02*
Y720000D01*
Y660000D02*
X2310000D01*
Y690000D01*
X2101000D02*
X2110000D01*
X2310000D02*
X2319000D01*
X2305733Y489044D02*
Y519044D01*
X2105733D02*
X2305733D01*
X2105733Y459044D02*
Y519044D01*
Y459044D02*
X2305733D01*
Y489044D01*
X2096733D02*
X2105733D01*
X2305733D02*
X2314733D01*
X2305733Y331351D02*
Y361351D01*
X2105733D02*
X2305733D01*
X2105733Y301351D02*
Y361351D01*
Y301351D02*
X2305733D01*
Y331351D01*
X2096733D02*
X2105733D01*
X2305733D02*
X2314733D01*
X2305733Y173659D02*
Y203659D01*
X2105733D02*
X2305733D01*
X2105733Y143659D02*
Y203659D01*
Y143659D02*
X2305733D01*
Y173659D01*
X2096733D02*
X2105733D01*
X2305733D02*
X2314733D01*
X690000Y591968D02*
Y941968D01*
Y591968D02*
X840000D01*
Y941968D01*
X690000D02*
X840000D01*
X950000Y320000D02*
Y670000D01*
Y320000D02*
X1100000D01*
Y670000D01*
X950000D02*
X1100000D01*
X941496Y2830000D02*
X1278504D01*
Y2730000D02*
Y2830000D01*
X941496Y2730000D02*
X1278504D01*
X941496D02*
Y2830000D01*
X1645000Y2780000D02*
Y2810000D01*
X1445000D02*
X1645000D01*
X1445000Y2750000D02*
Y2810000D01*
Y2750000D02*
X1645000D01*
Y2780000D01*
X1436000D02*
X1445000D01*
X1645000D02*
X1654000D01*
X691496Y1615000D02*
X1028504D01*
Y1515000D02*
Y1615000D01*
X691496Y1515000D02*
X1028504D01*
X691496D02*
Y1615000D01*
X675000Y1370000D02*
Y1400000D01*
Y1370000D02*
X875000D01*
Y1430000D01*
X675000D02*
X875000D01*
X675000Y1400000D02*
Y1430000D01*
X875000Y1400000D02*
X884000D01*
X666000D02*
X675000D01*
X556496Y1305000D02*
X893504D01*
Y1205000D02*
Y1305000D01*
X556496Y1205000D02*
X893504D01*
X556496D02*
Y1305000D01*
X545000Y1015000D02*
Y1045000D01*
Y1015000D02*
X745000D01*
Y1075000D01*
X545000D02*
X745000D01*
X545000Y1045000D02*
Y1075000D01*
X745000Y1045000D02*
X754000D01*
X536000D02*
X545000D01*
D24*
X1179921Y2116181D02*
G03*
X1179921Y2116181I-4921J0D01*
G01*
X927480Y2779961D02*
G03*
X927480Y2779961I-4921J0D01*
G01*
X677480Y1564961D02*
G03*
X677480Y1564961I-4921J0D01*
G01*
X542480Y1254961D02*
G03*
X542480Y1254961I-4921J0D01*
G01*
D25*
X1272244Y2124843D02*
G03*
X1272244Y2124843I-11811J0D01*
G01*
D26*
X3466000Y835000D02*
G03*
X3466000Y835000I-7000J0D01*
G01*
X3450870Y2259961D02*
G03*
X3450870Y2259961I-7000J0D01*
G01*
D27*
X398234Y2076000D02*
G03*
X398234Y2076000I-4234J0D01*
G01*
D28*
X2518000Y865000D02*
X3502252D01*
X2518000Y235079D02*
Y865000D01*
Y235079D02*
X2518079Y235000D01*
X3502252D01*
Y865000D01*
X2502870Y2289961D02*
X3487122D01*
X2502870Y1660040D02*
Y2289961D01*
Y1660040D02*
X2502949Y1659961D01*
X3487122D01*
Y2289961D01*
X610000Y2948481D02*
Y2888500D01*
X649987D01*
X669981D02*
X689974D01*
X679977D01*
Y2948481D01*
X669981Y2938484D01*
X469987Y2509984D02*
X459990Y2519981D01*
X439997D01*
X430000Y2509984D01*
Y2469997D01*
X439997Y2460000D01*
X459990D01*
X469987Y2469997D01*
X489981Y2519981D02*
X529968D01*
Y2509984D01*
X489981Y2469997D01*
Y2460000D01*
X286487Y2938484D02*
X276490Y2948481D01*
X256497D01*
X246500Y2938484D01*
Y2898497D01*
X256497Y2888500D01*
X276490D01*
X286487Y2898497D01*
X346468Y2948481D02*
X326474Y2938484D01*
X306481Y2918490D01*
Y2898497D01*
X316477Y2888500D01*
X336471D01*
X346468Y2898497D01*
Y2908494D01*
X336471Y2918490D01*
X306481D01*
X106500Y2863500D02*
Y2923481D01*
X136490D01*
X146487Y2913484D01*
Y2893490D01*
X136490Y2883494D01*
X106500D01*
X166481Y2863500D02*
X186474D01*
X176477D01*
Y2923481D01*
X166481Y2913484D01*
X885000Y939981D02*
Y929984D01*
X904994Y909990D01*
X924987Y929984D01*
Y939981D01*
X904994Y909990D02*
Y880000D01*
X944981D02*
X964974D01*
X954977D01*
Y939981D01*
X944981Y929984D01*
X1020000Y2004981D02*
Y1954997D01*
X1029997Y1945000D01*
X1049990D01*
X1059987Y1954997D01*
Y2004981D01*
X1079981Y1945000D02*
X1099974D01*
X1089977D01*
Y2004981D01*
X1079981Y1994984D01*
X437987Y1274984D02*
X427990Y1284981D01*
X407997D01*
X398000Y1274984D01*
Y1264987D01*
X407997Y1254990D01*
X427990D01*
X437987Y1244994D01*
Y1234997D01*
X427990Y1225000D01*
X407997D01*
X398000Y1234997D01*
X487971Y1225000D02*
Y1284981D01*
X457981Y1254990D01*
X497968D01*
X572987Y1584984D02*
X562990Y1594981D01*
X542997D01*
X533000Y1584984D01*
Y1574987D01*
X542997Y1564990D01*
X562990D01*
X572987Y1554994D01*
Y1544997D01*
X562990Y1535000D01*
X542997D01*
X533000Y1544997D01*
X592981Y1584984D02*
X602977Y1594981D01*
X622971D01*
X632968Y1584984D01*
Y1574987D01*
X622971Y1564990D01*
X612974D01*
X622971D01*
X632968Y1554994D01*
Y1544997D01*
X622971Y1535000D01*
X602977D01*
X592981Y1544997D01*
X962987Y2913984D02*
X952990Y2923981D01*
X932997D01*
X923000Y2913984D01*
Y2903987D01*
X932997Y2893990D01*
X952990D01*
X962987Y2883994D01*
Y2873997D01*
X952990Y2864000D01*
X932997D01*
X923000Y2873997D01*
X1022968Y2864000D02*
X982981D01*
X1022968Y2903987D01*
Y2913984D01*
X1012971Y2923981D01*
X992977D01*
X982981Y2913984D01*
X403487Y2194484D02*
X393490Y2204481D01*
X373497D01*
X363500Y2194484D01*
Y2184487D01*
X373497Y2174490D01*
X393490D01*
X403487Y2164494D01*
Y2154497D01*
X393490Y2144500D01*
X373497D01*
X363500Y2154497D01*
X423481Y2144500D02*
X443474D01*
X433477D01*
Y2204481D01*
X423481Y2194484D01*
X234000Y1015000D02*
Y1074981D01*
X263990D01*
X273987Y1064984D01*
Y1044990D01*
X263990Y1034994D01*
X234000D01*
X253994D02*
X273987Y1015000D01*
X293981D02*
X313974D01*
X303977D01*
Y1074981D01*
X293981Y1064984D01*
X343964Y1024997D02*
X353961Y1015000D01*
X373955D01*
X383952Y1024997D01*
Y1064984D01*
X373955Y1074981D01*
X353961D01*
X343964Y1064984D01*
Y1054987D01*
X353961Y1044990D01*
X383952D01*
X364000Y1370000D02*
Y1429981D01*
X393990D01*
X403987Y1419984D01*
Y1399990D01*
X393990Y1389994D01*
X364000D01*
X383993D02*
X403987Y1370000D01*
X423981D02*
X443974D01*
X433977D01*
Y1429981D01*
X423981Y1419984D01*
X473964D02*
X483961Y1429981D01*
X503955D01*
X513952Y1419984D01*
Y1409987D01*
X503955Y1399990D01*
X513952Y1389994D01*
Y1379997D01*
X503955Y1370000D01*
X483961D01*
X473964Y1379997D01*
Y1389994D01*
X483961Y1399990D01*
X473964Y1409987D01*
Y1419984D01*
X483961Y1399990D02*
X503955D01*
X1323000Y2859000D02*
Y2918981D01*
X1352990D01*
X1362987Y2908984D01*
Y2888990D01*
X1352990Y2878994D01*
X1323000D01*
X1342994D02*
X1362987Y2859000D01*
X1382981D02*
X1402974D01*
X1392977D01*
Y2918981D01*
X1382981Y2908984D01*
X1432964Y2918981D02*
X1472951D01*
Y2908984D01*
X1432964Y2868997D01*
Y2859000D01*
X2131000Y253000D02*
Y312981D01*
X2160990D01*
X2170987Y302984D01*
Y282990D01*
X2160990Y272993D01*
X2131000D01*
X2150994D02*
X2170987Y253000D01*
X2190981D02*
X2210974D01*
X2200977D01*
Y312981D01*
X2190981Y302984D01*
X2280952Y312981D02*
X2260958Y302984D01*
X2240964Y282990D01*
Y262997D01*
X2250961Y253000D01*
X2270955D01*
X2280952Y262997D01*
Y272993D01*
X2270955Y282990D01*
X2240964D01*
X2131000Y411000D02*
Y470981D01*
X2160990D01*
X2170987Y460984D01*
Y440990D01*
X2160990Y430993D01*
X2131000D01*
X2150994D02*
X2170987Y411000D01*
X2190981D02*
X2210974D01*
X2200977D01*
Y470981D01*
X2190981Y460984D01*
X2280952Y470981D02*
X2240964D01*
Y440990D01*
X2260958Y450987D01*
X2270955D01*
X2280952Y440990D01*
Y420997D01*
X2270955Y411000D01*
X2250961D01*
X2240964Y420997D01*
X2131000Y569000D02*
Y628981D01*
X2160990D01*
X2170987Y618984D01*
Y598990D01*
X2160990Y588994D01*
X2131000D01*
X2150994D02*
X2170987Y569000D01*
X2190981D02*
X2210974D01*
X2200977D01*
Y628981D01*
X2190981Y618984D01*
X2270955Y569000D02*
Y628981D01*
X2240964Y598990D01*
X2280952D01*
X2135000Y770000D02*
Y829981D01*
X2164990D01*
X2174987Y819984D01*
Y799990D01*
X2164990Y789994D01*
X2135000D01*
X2154994D02*
X2174987Y770000D01*
X2194981D02*
X2214974D01*
X2204977D01*
Y829981D01*
X2194981Y819984D01*
X2244964D02*
X2254961Y829981D01*
X2274955D01*
X2284952Y819984D01*
Y809987D01*
X2274955Y799990D01*
X2264958D01*
X2274955D01*
X2284952Y789994D01*
Y779997D01*
X2274955Y770000D01*
X2254961D01*
X2244964Y779997D01*
X2764000Y1416000D02*
Y1475981D01*
X2793990D01*
X2803987Y1465984D01*
Y1445990D01*
X2793990Y1435994D01*
X2764000D01*
X2783994D02*
X2803987Y1416000D01*
X2823981D02*
X2843974D01*
X2833977D01*
Y1475981D01*
X2823981Y1465984D01*
X2913952Y1416000D02*
X2873964D01*
X2913952Y1455987D01*
Y1465984D01*
X2903955Y1475981D01*
X2883961D01*
X2873964Y1465984D01*
X2932000Y1416000D02*
Y1475981D01*
X2961990D01*
X2971987Y1465984D01*
Y1445990D01*
X2961990Y1435994D01*
X2932000D01*
X2951994D02*
X2971987Y1416000D01*
X2991981D02*
X3011974D01*
X3001977D01*
Y1475981D01*
X2991981Y1465984D01*
X3041964Y1416000D02*
X3061958D01*
X3051961D01*
Y1475981D01*
X3041964Y1465984D01*
X895000Y2227000D02*
Y2286981D01*
X924990D01*
X934987Y2276984D01*
Y2256990D01*
X924990Y2246994D01*
X895000D01*
X914994D02*
X934987Y2227000D01*
X954981D02*
X974974D01*
X964977D01*
Y2286981D01*
X954981Y2276984D01*
X1004964D02*
X1014961Y2286981D01*
X1034955D01*
X1044951Y2276984D01*
Y2236997D01*
X1034955Y2227000D01*
X1014961D01*
X1004964Y2236997D01*
Y2276984D01*
X335000Y2270376D02*
Y2330357D01*
X364990D01*
X374987Y2320360D01*
Y2300367D01*
X364990Y2290370D01*
X335000D01*
X354993D02*
X374987Y2270376D01*
X394981Y2280373D02*
X404977Y2270376D01*
X424971D01*
X434968Y2280373D01*
Y2320360D01*
X424971Y2330357D01*
X404977D01*
X394981Y2320360D01*
Y2310363D01*
X404977Y2300367D01*
X434968D01*
X3102000Y1416000D02*
Y1475981D01*
X3131990D01*
X3141987Y1465984D01*
Y1445990D01*
X3131990Y1435994D01*
X3102000D01*
X3121994D02*
X3141987Y1416000D01*
X3161981Y1465984D02*
X3171977Y1475981D01*
X3191971D01*
X3201968Y1465984D01*
Y1455987D01*
X3191971Y1445990D01*
X3201968Y1435994D01*
Y1425997D01*
X3191971Y1416000D01*
X3171977D01*
X3161981Y1425997D01*
Y1435994D01*
X3171977Y1445990D01*
X3161981Y1455987D01*
Y1465984D01*
X3171977Y1445990D02*
X3191971D01*
X2170000Y1568000D02*
Y1627981D01*
X2199990D01*
X2209987Y1617984D01*
Y1597990D01*
X2199990Y1587994D01*
X2170000D01*
X2189994D02*
X2209987Y1568000D01*
X2229981Y1627981D02*
X2269968D01*
Y1617984D01*
X2229981Y1577997D01*
Y1568000D01*
X2170000Y1726000D02*
Y1785981D01*
X2199990D01*
X2209987Y1775984D01*
Y1755990D01*
X2199990Y1745994D01*
X2170000D01*
X2189994D02*
X2209987Y1726000D01*
X2269968Y1785981D02*
X2249974Y1775984D01*
X2229981Y1755990D01*
Y1735997D01*
X2239977Y1726000D01*
X2259971D01*
X2269968Y1735997D01*
Y1745994D01*
X2259971Y1755990D01*
X2229981D01*
X2170000Y1869769D02*
Y1929750D01*
X2199990D01*
X2209987Y1919753D01*
Y1899760D01*
X2199990Y1889763D01*
X2170000D01*
X2189994D02*
X2209987Y1869769D01*
X2269968Y1929750D02*
X2229981D01*
Y1899760D01*
X2249974Y1909756D01*
X2259971D01*
X2269968Y1899760D01*
Y1879766D01*
X2259971Y1869769D01*
X2239977D01*
X2229981Y1879766D01*
X2170000Y2044000D02*
Y2103981D01*
X2199990D01*
X2209987Y2093984D01*
Y2073990D01*
X2199990Y2063994D01*
X2170000D01*
X2189994D02*
X2209987Y2044000D01*
X2259971D02*
Y2103981D01*
X2229981Y2073990D01*
X2269968D01*
X2165000Y2210000D02*
Y2269981D01*
X2194990D01*
X2204987Y2259984D01*
Y2239990D01*
X2194990Y2229994D01*
X2165000D01*
X2184994D02*
X2204987Y2210000D01*
X2224981Y2259984D02*
X2234977Y2269981D01*
X2254971D01*
X2264968Y2259984D01*
Y2249987D01*
X2254971Y2239990D01*
X2244974D01*
X2254971D01*
X2264968Y2229994D01*
Y2219997D01*
X2254971Y2210000D01*
X2234977D01*
X2224981Y2219997D01*
X3017000Y2881000D02*
Y2940981D01*
X3046990D01*
X3056987Y2930984D01*
Y2910990D01*
X3046990Y2900994D01*
X3017000D01*
X3036994D02*
X3056987Y2881000D01*
X3116968D02*
X3076981D01*
X3116968Y2920987D01*
Y2930984D01*
X3106971Y2940981D01*
X3086977D01*
X3076981Y2930984D01*
X3185000Y2881000D02*
Y2940981D01*
X3214990D01*
X3224987Y2930984D01*
Y2910990D01*
X3214990Y2900994D01*
X3185000D01*
X3204994D02*
X3224987Y2881000D01*
X3244981D02*
X3264974D01*
X3254977D01*
Y2940981D01*
X3244981Y2930984D01*
X2523000Y959981D02*
Y900000D01*
X2562987D01*
X2582981Y959981D02*
X2622968D01*
X2602974D01*
Y900000D01*
X2642961D02*
Y959981D01*
X2672952D01*
X2682948Y949984D01*
Y929990D01*
X2672952Y919994D01*
X2642961D01*
X2742929Y900000D02*
X2702942D01*
X2742929Y939987D01*
Y949984D01*
X2732932Y959981D01*
X2712939D01*
X2702942Y949984D01*
X2508039Y2384851D02*
Y2324870D01*
X2548026D01*
X2568020Y2384851D02*
X2608007D01*
X2588013D01*
Y2324870D01*
X2628000D02*
Y2384851D01*
X2657990D01*
X2667987Y2374854D01*
Y2354860D01*
X2657990Y2344863D01*
X2628000D01*
X2687981Y2324870D02*
X2707974D01*
X2697978D01*
Y2384851D01*
X2687981Y2374854D01*
X1152000Y2703981D02*
Y2644000D01*
Y2673990D01*
X1191987D01*
Y2703981D01*
Y2644000D01*
X1211981D02*
X1231974D01*
X1221977D01*
Y2703981D01*
X1211981Y2693984D01*
X595987Y786952D02*
X585990Y796949D01*
X565997D01*
X556000Y786952D01*
Y746965D01*
X565997Y736968D01*
X585990D01*
X595987Y746965D01*
X655968Y796949D02*
X615981D01*
Y766959D01*
X635974Y776956D01*
X645971D01*
X655968Y766959D01*
Y746965D01*
X645971Y736968D01*
X625977D01*
X615981Y746965D01*
X855987Y514984D02*
X845990Y524981D01*
X825997D01*
X816000Y514984D01*
Y474997D01*
X825997Y465000D01*
X845990D01*
X855987Y474997D01*
X905971Y465000D02*
Y524981D01*
X875981Y494990D01*
X915968D01*
X964987Y1136707D02*
X954990Y1146704D01*
X934997D01*
X925000Y1136707D01*
Y1096720D01*
X934997Y1086724D01*
X954990D01*
X964987Y1096720D01*
X984981Y1136707D02*
X994977Y1146704D01*
X1014971D01*
X1024968Y1136707D01*
Y1126711D01*
X1014971Y1116714D01*
X1004974D01*
X1014971D01*
X1024968Y1106717D01*
Y1096720D01*
X1014971Y1086724D01*
X994977D01*
X984981Y1096720D01*
X2089987Y1250383D02*
X2079990Y1260380D01*
X2059997D01*
X2050000Y1250383D01*
Y1210396D01*
X2059997Y1200399D01*
X2079990D01*
X2089987Y1210396D01*
X2149968Y1200399D02*
X2109981D01*
X2149968Y1240386D01*
Y1250383D01*
X2139971Y1260380D01*
X2119977D01*
X2109981Y1250383D01*
X239987Y1699984D02*
X229990Y1709981D01*
X209997D01*
X200000Y1699984D01*
Y1659997D01*
X209997Y1650000D01*
X229990D01*
X239987Y1659997D01*
X259981Y1650000D02*
X279974D01*
X269977D01*
Y1709981D01*
X259981Y1699984D01*
D29*
X357000Y1731000D02*
Y2111000D01*
Y1731000D02*
X817000D01*
Y2111000D01*
X357000D02*
X817000D01*
D30*
X765315Y2651047D02*
X775154Y2660886D01*
X794833D01*
X804672Y2651047D01*
Y2641207D01*
X794833Y2631368D01*
X784994D01*
X794833D01*
X804672Y2621529D01*
Y2611689D01*
X794833Y2601850D01*
X775154D01*
X765315Y2611689D01*
X704672Y2601850D02*
X665315D01*
X704672Y2641207D01*
Y2651047D01*
X694833Y2660886D01*
X675154D01*
X665315Y2651047D01*
X575157Y2601850D02*
X594836D01*
X584997D01*
Y2660886D01*
X575157Y2651047D01*
D31*
X1725000Y2540000D02*
X1741661D01*
X1733331D01*
Y2589984D01*
X1725000Y2581653D01*
X1766653D02*
X1774984Y2589984D01*
X1791645D01*
X1799976Y2581653D01*
Y2548331D01*
X1791645Y2540000D01*
X1774984D01*
X1766653Y2548331D01*
Y2581653D01*
X1740000Y2448331D02*
X1748331Y2440000D01*
X1764992D01*
X1773323Y2448331D01*
Y2481653D01*
X1764992Y2489984D01*
X1748331D01*
X1740000Y2481653D01*
Y2473323D01*
X1748331Y2464992D01*
X1773323D01*
X1155000Y2440000D02*
X1171661D01*
X1163331D01*
Y2489984D01*
X1155000Y2481653D01*
X1173323Y2540000D02*
X1140000D01*
X1173323Y2573323D01*
Y2581653D01*
X1164992Y2589984D01*
X1148331D01*
X1140000Y2581653D01*
%TF.MD5,6e60db902583d9e7368266e10180577e*%
M02*
