%TF.GenerationSoftware,Altium Limited,Altium Designer,18.1.7 (191)*%
G04 Layer_Color=0*
%FSLAX26Y26*%
%MOIN*%
%TF.FileFunction,Plated,1,2,PTH,Drill*%
%TF.Part,Single*%
G01*
G75*
%TA.AperFunction,ComponentDrill*%
%ADD33C,0.035430*%
%ADD34C,0.035430*%
%ADD35C,0.035000*%
%ADD36C,0.032000*%
%ADD37C,0.035433*%
%ADD38C,0.035000*%
%ADD39C,0.035433*%
%ADD40C,0.047000*%
%TA.AperFunction,ViaDrill,NotFilled*%
%ADD41C,0.035430*%
D33*
X785000Y2780000D02*
D03*
X685000D02*
D03*
X585000D02*
D03*
X1025000Y743976D02*
D03*
Y866024D02*
D03*
X845000Y2480000D02*
D03*
X645000D02*
D03*
X1010000Y2780000D02*
D03*
X1210000D02*
D03*
X760000Y1565000D02*
D03*
X960000D02*
D03*
X625000Y1255000D02*
D03*
X825000D02*
D03*
D34*
X1035000Y1213276D02*
D03*
Y1013277D02*
D03*
X1930000Y1115399D02*
D03*
Y1315399D02*
D03*
X315000Y2780000D02*
D03*
Y2580000D02*
D03*
X240000Y1815000D02*
D03*
Y2015000D02*
D03*
X2610130Y800040D02*
D03*
X2710000Y800000D02*
D03*
X2810130D02*
D03*
X2910000Y800040D02*
D03*
X3010130D02*
D03*
X3110130D02*
D03*
X3210130D02*
D03*
X3310000Y800000D02*
D03*
X3410130D02*
D03*
X3410000Y300000D02*
D03*
X3310130Y300039D02*
D03*
X3210130D02*
D03*
X3110130Y300000D02*
D03*
X3010130Y300039D02*
D03*
X2910130D02*
D03*
X2810130D02*
D03*
X2710000D02*
D03*
X2610000D02*
D03*
X2595000Y2225001D02*
D03*
X2694870Y2224961D02*
D03*
X2795000D02*
D03*
X2894870Y2225001D02*
D03*
X2995000D02*
D03*
X3095000D02*
D03*
X3195000D02*
D03*
X3294870Y2224961D02*
D03*
X3395000D02*
D03*
X3394870Y1724961D02*
D03*
X3295000Y1725000D02*
D03*
X3195000D02*
D03*
X3095000Y1724961D02*
D03*
X2995000Y1725000D02*
D03*
X2895000D02*
D03*
X2795000D02*
D03*
X2694870D02*
D03*
X2594870D02*
D03*
X150000Y2780000D02*
D03*
X765000Y666968D02*
D03*
Y866968D02*
D03*
X1025000Y395000D02*
D03*
Y595000D02*
D03*
D35*
X902000Y2300000D02*
D03*
X538000D02*
D03*
X2397000Y2130000D02*
D03*
X2033000D02*
D03*
X2402000Y1965000D02*
D03*
X2038000D02*
D03*
X2402000Y1790000D02*
D03*
X2038000D02*
D03*
X2402000Y1646538D02*
D03*
X2038000D02*
D03*
X2402000Y1488846D02*
D03*
X2038000D02*
D03*
X2392000Y690000D02*
D03*
X2028000D02*
D03*
X2387733Y489044D02*
D03*
X2023733D02*
D03*
X2387733Y331351D02*
D03*
X2023733D02*
D03*
X2387733Y173659D02*
D03*
X2023733D02*
D03*
X1727000Y2780000D02*
D03*
X1363000D02*
D03*
X593000Y1400000D02*
D03*
X957000D02*
D03*
X463000Y1045000D02*
D03*
X827000D02*
D03*
D36*
X1175000Y2065000D02*
D03*
Y1965000D02*
D03*
Y1865000D02*
D03*
Y1765000D02*
D03*
Y1665000D02*
D03*
Y1565000D02*
D03*
Y1465000D02*
D03*
Y1365000D02*
D03*
Y1265000D02*
D03*
Y1165000D02*
D03*
Y1065000D02*
D03*
Y965000D02*
D03*
Y865000D02*
D03*
Y765000D02*
D03*
Y665000D02*
D03*
Y565000D02*
D03*
Y465000D02*
D03*
Y365000D02*
D03*
Y265000D02*
D03*
Y165000D02*
D03*
X1775000Y2065000D02*
D03*
Y1965000D02*
D03*
Y1865000D02*
D03*
Y1765000D02*
D03*
Y1665000D02*
D03*
Y1565000D02*
D03*
Y1465000D02*
D03*
Y1365000D02*
D03*
Y1265000D02*
D03*
Y1165000D02*
D03*
Y1065000D02*
D03*
Y965000D02*
D03*
Y865000D02*
D03*
Y765000D02*
D03*
Y665000D02*
D03*
Y565000D02*
D03*
Y465000D02*
D03*
Y365000D02*
D03*
Y265000D02*
D03*
Y165000D02*
D03*
D37*
X150000Y2680000D02*
D03*
D38*
X3225000Y2438000D02*
D03*
Y2802000D02*
D03*
X3067308Y2438000D02*
D03*
Y2802000D02*
D03*
X3151952Y972267D02*
D03*
Y1336267D02*
D03*
X935000Y1783000D02*
D03*
Y2147000D02*
D03*
X2997121Y972267D02*
D03*
Y1336267D02*
D03*
X2839428Y972267D02*
D03*
Y1336267D02*
D03*
D39*
X1650000Y2560000D02*
D03*
Y2460000D02*
D03*
X1550000Y2560000D02*
D03*
Y2460000D02*
D03*
X1450000Y2560000D02*
D03*
Y2460000D02*
D03*
X1350000Y2560000D02*
D03*
Y2460000D02*
D03*
X1250000Y2560000D02*
D03*
Y2460000D02*
D03*
D40*
X715000Y2010000D02*
D03*
Y1832000D02*
D03*
X459000D02*
D03*
Y2010000D02*
D03*
D41*
X1605000Y1165000D02*
D03*
X1300000Y965000D02*
D03*
X990000Y2485000D02*
D03*
X1972183Y2802000D02*
D03*
X2415000D02*
D03*
Y2575000D02*
D03*
X1965000D02*
D03*
X2265000Y2260000D02*
D03*
X1450000Y2015000D02*
D03*
X1350000Y2260000D02*
D03*
%TF.MD5,20335b96e8629d67a1141cd1a0230701*%
M02*
