%TF.GenerationSoftware,Altium Limited,Altium Designer,18.1.7 (191)*%
G04 Layer_Physical_Order=2*
G04 Layer_Color=16711680*
%FSLAX26Y26*%
%MOIN*%
%TF.FileFunction,Copper,L2,Bot,Signal*%
%TF.Part,Single*%
G01*
G75*
%TA.AperFunction,Conductor*%
%ADD10C,0.039370*%
%TA.AperFunction,ComponentPad*%
%ADD11C,0.078740*%
%ADD12R,0.082680X0.082680*%
%ADD13C,0.091000*%
%ADD14R,0.069000X0.069000*%
%ADD15C,0.074800*%
%ADD16R,0.078740X0.078740*%
%ADD17C,0.059055*%
%ADD18R,0.059055X0.059055*%
%ADD19C,0.084650*%
%ADD20R,0.084650X0.084650*%
%ADD21R,0.078740X0.078740*%
%TA.AperFunction,ViaPad*%
%ADD22C,0.090550*%
D10*
X1605000Y1165000D02*
X1775000D01*
X1175000Y965000D02*
X1300000D01*
X3410000Y300000D02*
X3500000D01*
Y990000D01*
X3394870D02*
X3500000D01*
X3394870D02*
Y1724961D01*
X2387733Y115000D02*
X3210130D01*
Y300039D01*
X2387733Y115000D02*
Y173659D01*
Y331351D02*
X2520000D01*
Y200000D02*
Y331351D01*
X2910130Y300039D02*
Y489044D01*
X2387733D02*
X2910130D01*
X3110000Y200000D02*
Y300000D01*
X3110130D01*
X3010130Y200000D02*
X3110000D01*
X3010130D02*
Y300039D01*
X2520000Y200000D02*
X3010130D01*
X2715000Y690000D02*
Y800000D01*
X2710000D02*
X2715000D01*
X2610130Y690000D02*
X2715000D01*
X2610130D02*
Y800040D01*
X2392000Y690000D02*
X2610130D01*
X1855630Y341762D02*
X2023733Y173659D01*
X1855630Y341762D02*
Y464370D01*
X1855000Y465000D02*
X1855630Y464370D01*
X1775000Y465000D02*
X1855000D01*
X1998649Y331351D02*
X2023733D01*
X1915000Y415000D02*
X1998649Y331351D01*
X1915000Y415000D02*
Y545000D01*
X1895000Y565000D02*
X1915000Y545000D01*
X1775000Y565000D02*
X1895000D01*
X2023733Y489044D02*
Y551267D01*
X1910000Y665000D02*
X2023733Y551267D01*
X1775000Y665000D02*
X1910000D01*
X1953000Y765000D02*
X2028000Y690000D01*
X1775000Y765000D02*
X1953000D01*
X3410130Y800000D02*
Y890000D01*
X3310000D02*
X3410130D01*
X3310000Y800000D02*
Y890000D01*
X3151952D02*
X3310000D01*
X3151952D02*
Y972267D01*
X2997121Y800040D02*
Y972267D01*
Y800040D02*
X3010130D01*
X2910000D02*
Y895000D01*
X2839428D02*
X2910000D01*
X2839428D02*
Y972267D01*
X935000Y1783000D02*
Y1960630D01*
X994592D01*
X1089370Y2055408D01*
Y2314370D01*
X1035000Y1065000D02*
X1175000D01*
X1030000Y2340000D02*
X1090000Y2400000D01*
X1030000Y2080000D02*
Y2340000D01*
X970000Y2020000D02*
X1030000Y2080000D01*
X845000Y2485000D02*
X990000D01*
X598000Y2299624D02*
Y2300000D01*
X440000Y1255000D02*
Y1565000D01*
X760000D01*
X845000Y2020000D02*
X970000D01*
X845000Y1470000D02*
Y2020000D01*
X725000Y1470000D02*
X845000D01*
X935000Y2147000D02*
Y2300000D01*
X538000D02*
X598000D01*
X902000D02*
X935000D01*
X1089370Y2314370D02*
X1149370Y2374370D01*
Y2665000D01*
X1250000D01*
Y2560000D02*
Y2665000D01*
X1090000Y2400000D02*
Y2910000D01*
X1363000D01*
Y2780000D02*
Y2910000D01*
X1025000Y866024D02*
X1175000D01*
X765000Y866968D02*
X765945Y866024D01*
X1025000D01*
Y595000D02*
Y743976D01*
X1046024Y765000D02*
X1175000D01*
X1025000Y743976D02*
X1046024Y765000D01*
X1175000Y865000D02*
Y866024D01*
X725000Y1140000D02*
X945000D01*
Y1013277D02*
X1035000D01*
X945000D02*
Y1140000D01*
X1035000Y1013277D02*
Y1065000D01*
X1042185Y1465000D02*
X1175000D01*
X1042185Y1314815D02*
Y1465000D01*
X825000Y1314815D02*
X1042185D01*
X825000Y1255000D02*
Y1314815D01*
X960000Y1565000D02*
X1175000D01*
X2008000Y2130000D02*
X2033000D01*
X1940000Y2062000D02*
X2008000Y2130000D01*
X2645000Y1336267D02*
X2839428D01*
X2153733Y845000D02*
X2645000Y1336267D01*
X1860000Y845000D02*
X2153733D01*
X1840000Y865000D02*
X1860000Y845000D01*
X1775000Y865000D02*
X1840000D01*
X2997121Y1336267D02*
Y1425000D01*
X2599870D02*
X2997121D01*
X2089870Y915000D02*
X2599870Y1425000D01*
X1885000Y915000D02*
X2089870D01*
X1835000Y965000D02*
X1885000Y915000D01*
X1775000Y965000D02*
X1835000D01*
X2517785Y1467785D02*
Y1490000D01*
X2050000Y1000000D02*
X2517785Y1467785D01*
X1900000Y1000000D02*
X2050000D01*
X2517785Y1490000D02*
X3151952D01*
Y1336267D02*
Y1490000D01*
X1835000Y1065000D02*
X1900000Y1000000D01*
X1775000Y1065000D02*
X1835000D01*
X3395000Y2224961D02*
Y2438000D01*
X3294870D02*
X3395000D01*
X3294870Y2224961D02*
Y2438000D01*
X3225000D02*
X3294870D01*
X2995000Y2225001D02*
Y2438000D01*
X3067308D01*
X1972183Y2695000D02*
Y2802000D01*
X1812185Y2695000D02*
X1972183D01*
X2415000Y2802000D02*
X3067308D01*
X1650000Y2575000D02*
X1965000D01*
X3225000D02*
Y2802000D01*
X2415000Y2575000D02*
X3225000D01*
X1650000Y2560000D02*
Y2575000D01*
X1812185Y2694815D02*
Y2695000D01*
X1550000Y2694815D02*
X1812185D01*
X1550000Y2560000D02*
Y2694815D01*
X2170000Y1315399D02*
Y2910000D01*
X1363000D02*
X2170000D01*
X1930000Y1315399D02*
X2170000D01*
X2265000Y1875185D02*
X2487185D01*
X2265000D02*
Y2260000D01*
X3195000Y1555000D02*
Y1725000D01*
X2402000Y1555000D02*
X3195000D01*
X2402000Y1488846D02*
Y1555000D01*
X3000000Y1646538D02*
Y1725000D01*
X3095000Y1646538D02*
Y1724961D01*
X3000000Y1646538D02*
X3095000D01*
X2995000Y1725000D02*
X3000000D01*
X2402000Y1646538D02*
X3000000D01*
X2895000Y1725000D02*
Y1802085D01*
X2517785D02*
X2895000D01*
X2517785Y1790000D02*
Y1802085D01*
X2402000Y1790000D02*
X2517785D01*
X3394870Y1724961D02*
Y1875000D01*
X2487185D02*
X3394870D01*
X2487185D02*
Y1875185D01*
X2023769Y1790000D02*
X2038000D01*
X1898769Y1665000D02*
X2023769Y1790000D01*
X2694870Y1965000D02*
Y2224961D01*
X2595000Y1965000D02*
X2694870D01*
X2595000D02*
Y2225001D01*
X2402000Y1965000D02*
X2595000D01*
X2894870Y2225001D02*
Y2345000D01*
X2402000D02*
X2894870D01*
X2402000Y2160000D02*
Y2345000D01*
X1940000Y1970000D02*
Y2062000D01*
X1835000Y1865000D02*
X1940000Y1970000D01*
X1775000Y1865000D02*
X1835000D01*
X1838000Y1765000D02*
X2038000Y1965000D01*
X1775000Y1765000D02*
X1838000D01*
X1775000Y1665000D02*
X1898769D01*
X1956462Y1565000D02*
X2038000Y1646538D01*
X1775000Y1565000D02*
X1956462D01*
X2014154Y1465000D02*
X2038000Y1488846D01*
X1775000Y1465000D02*
X2014154D01*
X1645040Y2065000D02*
Y2460000D01*
Y2065000D02*
X1775000D01*
X1550000Y1965000D02*
Y2460000D01*
Y1965000D02*
X1775000D01*
X1645040Y2460000D02*
X1650000D01*
X1450000Y2015000D02*
Y2460000D01*
X1175000Y2065000D02*
X1250000D01*
Y2460000D01*
X1350000Y2260000D02*
Y2460000D01*
X845000Y2480000D02*
Y2485000D01*
X598000Y2299624D02*
X785000D01*
X598000Y1570000D02*
Y2299624D01*
X725000Y1140000D02*
Y1470000D01*
X1171553Y1061553D02*
X1175000Y1065000D01*
X1775000Y1265000D02*
X1879601D01*
X1930000Y1315399D01*
X825000Y1045000D02*
X827000D01*
X440000Y1255000D02*
X625000D01*
X785000Y2299624D02*
Y2480000D01*
X1210000Y2780000D02*
X1363000D01*
X785000D02*
X1010000D01*
X785000Y2480000D02*
X845000D01*
X785000D02*
Y2780000D01*
X315000D02*
X585000D01*
X150000D02*
X315000D01*
D11*
X785000D02*
D03*
X685000D02*
D03*
X1035000Y1213276D02*
D03*
Y1013277D02*
D03*
X1025000Y743976D02*
D03*
Y866024D02*
D03*
X1930000Y1115399D02*
D03*
Y1315399D02*
D03*
X845000Y2480000D02*
D03*
X645000D02*
D03*
X315000Y2780000D02*
D03*
Y2580000D02*
D03*
X240000Y1815000D02*
D03*
Y2015000D02*
D03*
X150000Y2780000D02*
D03*
X765000Y666968D02*
D03*
Y866968D02*
D03*
X1025000Y395000D02*
D03*
Y595000D02*
D03*
X1210000Y2780000D02*
D03*
X960000Y1565000D02*
D03*
X625000Y1255000D02*
D03*
X825000D02*
D03*
D12*
X585000Y2780000D02*
D03*
D13*
X902000Y2300000D02*
D03*
X538000D02*
D03*
X3225000Y2438000D02*
D03*
Y2802000D02*
D03*
X3067308Y2438000D02*
D03*
Y2802000D02*
D03*
X2397000Y2130000D02*
D03*
X2033000D02*
D03*
X2402000Y1965000D02*
D03*
X2038000D02*
D03*
X2402000Y1790000D02*
D03*
X2038000D02*
D03*
X2402000Y1646538D02*
D03*
X2038000D02*
D03*
X2402000Y1488846D02*
D03*
X2038000D02*
D03*
X3151952Y972267D02*
D03*
Y1336267D02*
D03*
X935000Y1783000D02*
D03*
Y2147000D02*
D03*
X2997121Y972267D02*
D03*
Y1336267D02*
D03*
X2839428Y972267D02*
D03*
Y1336267D02*
D03*
X2392000Y690000D02*
D03*
X2028000D02*
D03*
X2387733Y489044D02*
D03*
X2023733D02*
D03*
X2387733Y331351D02*
D03*
X2023733D02*
D03*
X2387733Y173659D02*
D03*
X2023733D02*
D03*
X1727000Y2780000D02*
D03*
X1363000D02*
D03*
X593000Y1400000D02*
D03*
X957000D02*
D03*
X463000Y1045000D02*
D03*
X827000D02*
D03*
D14*
X1175000Y2065000D02*
D03*
Y1965000D02*
D03*
Y1865000D02*
D03*
Y1765000D02*
D03*
Y1665000D02*
D03*
Y1565000D02*
D03*
Y1465000D02*
D03*
Y1365000D02*
D03*
Y1265000D02*
D03*
Y1165000D02*
D03*
Y1065000D02*
D03*
Y965000D02*
D03*
Y865000D02*
D03*
Y765000D02*
D03*
Y665000D02*
D03*
Y565000D02*
D03*
Y465000D02*
D03*
Y365000D02*
D03*
Y265000D02*
D03*
Y165000D02*
D03*
X1775000Y2065000D02*
D03*
Y1965000D02*
D03*
Y1865000D02*
D03*
Y1765000D02*
D03*
Y1665000D02*
D03*
Y1565000D02*
D03*
Y1465000D02*
D03*
Y1365000D02*
D03*
Y1265000D02*
D03*
Y1165000D02*
D03*
Y1065000D02*
D03*
Y965000D02*
D03*
Y865000D02*
D03*
Y765000D02*
D03*
Y665000D02*
D03*
Y565000D02*
D03*
Y465000D02*
D03*
Y365000D02*
D03*
Y265000D02*
D03*
Y165000D02*
D03*
D15*
X2610130Y800040D02*
D03*
X2710000Y800000D02*
D03*
X2810130D02*
D03*
X2910000Y800040D02*
D03*
X3010130D02*
D03*
X3110130D02*
D03*
X3210130D02*
D03*
X3310000Y800000D02*
D03*
X3410130D02*
D03*
X3410000Y300000D02*
D03*
X3310130Y300039D02*
D03*
X3210130D02*
D03*
X3110130Y300000D02*
D03*
X3010130Y300039D02*
D03*
X2910130D02*
D03*
X2810130D02*
D03*
X2710000D02*
D03*
X2610000D02*
D03*
X2595000Y2225001D02*
D03*
X2694870Y2224961D02*
D03*
X2795000D02*
D03*
X2894870Y2225001D02*
D03*
X2995000D02*
D03*
X3095000D02*
D03*
X3195000D02*
D03*
X3294870Y2224961D02*
D03*
X3395000D02*
D03*
X3394870Y1724961D02*
D03*
X3295000Y1725000D02*
D03*
X3195000D02*
D03*
X3095000Y1724961D02*
D03*
X2995000Y1725000D02*
D03*
X2895000D02*
D03*
X2795000D02*
D03*
X2694870D02*
D03*
X2594870D02*
D03*
D16*
X150000Y2680000D02*
D03*
D17*
X1650000Y2560000D02*
D03*
Y2460000D02*
D03*
X1550000Y2560000D02*
D03*
Y2460000D02*
D03*
X1450000Y2560000D02*
D03*
Y2460000D02*
D03*
X1350000Y2560000D02*
D03*
Y2460000D02*
D03*
X1250000Y2560000D02*
D03*
D18*
Y2460000D02*
D03*
D19*
X715000Y2010000D02*
D03*
Y1832000D02*
D03*
X459000D02*
D03*
D20*
Y2010000D02*
D03*
D21*
X1010000Y2780000D02*
D03*
X760000Y1565000D02*
D03*
D22*
X1605000Y1165000D02*
D03*
X1300000Y965000D02*
D03*
X990000Y2485000D02*
D03*
X1972183Y2802000D02*
D03*
X2415000D02*
D03*
Y2575000D02*
D03*
X1965000D02*
D03*
X2265000Y2260000D02*
D03*
X1450000Y2015000D02*
D03*
X1350000Y2260000D02*
D03*
%TF.MD5,3439b687705d25fb8c6f24719ecbf6c2*%
M02*
